<svg width="88" height="26" viewBox="0 0 88 26" fill="none" xmlns="http://www.w3.org/2000/svg">
<g clip-path="url(#clip0_14285_23082)">
<path d="M36.4303 16.6926H30.9818L29.7361 19.1219H26.7891L33.5035 6.00781H34.2731L40.5014 19.1219H37.5848L36.4303 16.6926ZM35.1947 14.0718L33.8174 11.1486L32.3287 14.0718H35.1947Z" fill="#A3A3A3"/>
<path d="M45.2507 13.5681C44.8152 13.4572 44.005 13.2455 43.2556 12.7415C42.2023 12.046 41.6149 11.038 41.5643 9.7881C41.5035 8.73978 41.8479 7.8225 42.5264 7.1169C43.5088 6.1089 44.9165 5.82666 45.595 5.82666C47.509 5.82666 48.5825 6.52218 49.5446 7.13706L49.9801 7.4193L48.6028 9.64698L48.1369 9.34458C47.2862 8.80026 46.7495 8.44746 45.595 8.44746C45.4228 8.44746 44.7645 8.5785 44.4303 8.9313C44.3189 9.04218 44.1873 9.25386 44.2075 9.67722C44.2278 10.3526 44.6937 10.7255 45.8988 11.0279C46.0507 11.0683 46.1621 11.0985 46.2735 11.1388C47.5293 11.5723 48.5117 12.1468 49.1902 12.8827C49.8687 13.6286 50.2232 14.5156 50.2232 15.443C50.2232 16.3603 49.8282 17.3179 49.1699 18.0436C48.4002 18.9004 47.3268 19.3943 46.1419 19.3943C45.5545 19.3943 44.7645 19.354 43.8328 19.0718C42.6479 18.6988 41.5947 18.0436 40.6934 17.086L42.6074 15.2918C43.9949 16.7735 45.5545 16.7735 46.1419 16.7735C47.2356 16.7735 47.5901 15.7857 47.5901 15.443C47.5901 14.7273 46.7799 14.0721 45.4127 13.6084L45.3519 13.5883L45.2507 13.5681Z" fill="#A3A3A3"/>
<path d="M61.5759 6.00837V8.62917H57.9301V19.1325H55.2969V8.61909H51.6309V5.99829H61.5759V6.00837Z" fill="#A3A3A3"/>
<path d="M69.9614 19.123L67.5004 13.8612H66.1839V19.1028H63.5508V5.98877H68.5132C70.6905 5.98877 72.4628 7.76285 72.4628 9.94013C72.4628 11.5328 71.521 12.8936 70.1538 13.5185L72.7666 19.1331H69.9614V19.123ZM66.1839 8.60957V11.2505H68.5132C69.2423 11.2505 69.8297 10.6659 69.8297 9.94013C69.8297 9.21437 69.2423 8.60957 68.5132 8.60957H66.1839Z" fill="#A3A3A3"/>
<path d="M83.44 16.6926H77.9915L76.7459 19.1219H73.7988L80.5132 6.00781H81.2829L87.5011 19.1219H84.5844L83.44 16.6926ZM82.1944 14.0718L80.8171 11.1486L79.3283 14.0718H82.1944Z" fill="#A3A3A3"/>
<path d="M12.5596 0.102051C19.495 0.102051 25.1181 5.69804 25.1182 12.6011C25.1182 19.5042 19.4951 25.1001 12.5596 25.1001C5.62417 25.1 0.00195312 19.5041 0.00195312 12.6011C0.0020484 5.69812 5.62423 0.102185 12.5596 0.102051ZM6.02734 19.0522H8.76172C10.4834 15.5948 12.2051 12.1269 13.9268 8.66943L12.4072 5.646C10.2806 10.1113 8.15401 14.587 6.02734 19.0522ZM12.6104 16.6323L12.5596 16.7329H15.1426C15.4767 17.509 15.8211 18.2752 16.1553 19.0513H19.0918C17.8056 16.4305 16.5293 13.8098 15.2432 11.189C14.3621 13.0033 13.4914 14.818 12.6104 16.6323Z" fill="#A3A3A3"/>
</g>
<defs>
<clipPath id="clip0_14285_23082">
<rect width="87.5" height="25.2" fill="white"/>
</clipPath>
</defs>
</svg>
