<svg width="97" height="24" viewBox="0 0 97 24" fill="none" xmlns="http://www.w3.org/2000/svg">
<path d="M17.5391 0C21.108 0 24.0017 2.89306 24.002 6.46191V17.5381C24.0017 21.1069 21.108 24 17.5391 24H6.46387C2.89513 23.9998 0.0021902 21.1068 0.00195312 17.5381V6.46191C0.0021902 2.89318 2.89513 0.000206023 6.46387 0H17.5391ZM12.0303 3.5293C7.94891 3.52942 4.53844 6.39393 3.69434 10.2217H1.41504V13.9141H3.69434C4.53816 17.7422 7.94865 20.6063 12.0303 20.6064C16.1119 20.6063 19.5234 17.7422 20.3672 13.9141H22.6455V10.2217H20.3662C19.5221 6.39394 16.1116 3.52948 12.0303 3.5293ZM12.0303 7.22949C14.7025 7.22971 16.8691 9.39625 16.8691 12.0684C16.869 14.7404 14.7025 16.907 12.0303 16.9072C9.358 16.9071 7.19249 14.7405 7.19238 12.0684C7.19244 9.3962 9.35798 7.22963 12.0303 7.22949Z" fill="#A3A3A3"/>
<path fill-rule="evenodd" clip-rule="evenodd" d="M34.6694 16.1098C36.7566 16.1098 38.4487 14.4177 38.4487 12.3305C38.4487 10.2432 36.7566 8.55119 34.6694 8.55119C32.5821 8.55119 30.89 10.2432 30.89 12.3305C30.89 14.4177 32.5821 16.1098 34.6694 16.1098ZM34.6694 18.9998C38.3528 18.9998 41.3388 16.0139 41.3388 12.3305C41.3388 8.64711 38.3528 5.66113 34.6694 5.66113C30.986 5.66113 28 8.64711 28 12.3305C28 16.0139 30.986 18.9998 34.6694 18.9998Z" fill="#A3A3A3"/>
<path fill-rule="evenodd" clip-rule="evenodd" d="M42.8981 14.2C42.8981 14.2137 42.8984 14.2274 42.8984 14.2412V13.3999V14.1238C42.8984 16.8133 45.0757 18.9942 47.7639 18.9999C47.7649 18.9999 47.7661 18.9999 47.767 18.9999C47.7695 18.9999 47.772 18.9999 47.7745 18.9999C47.777 18.9999 47.7795 18.9999 47.782 18.9999C47.783 18.9999 47.7842 18.9999 47.7852 18.9999C48.7587 18.9979 49.6654 18.7104 50.4262 18.2167L49.074 15.9928C48.7056 16.2494 48.2576 16.3999 47.7745 16.3999C46.5176 16.3999 45.4985 15.3809 45.4985 14.1238V10.6H49.6982V7.99998H45.4985V7.79999H45.4981V4H42.8974V7.99998H41.498V10.6H42.8974L42.8981 14.2Z" fill="#A3A3A3"/>
<path fill-rule="evenodd" clip-rule="evenodd" d="M51.7008 14.2C51.7008 14.2137 51.7008 14.2275 51.7008 14.2412V13.3999H51.7011V14.1238C51.7011 16.8136 53.8791 18.9947 56.5676 18.9999C56.5688 18.9999 56.5698 18.9999 56.571 18.9999C56.5732 18.9999 56.5751 18.9999 56.5773 18.9999C56.5791 18.9999 56.5813 18.9999 56.5832 18.9999C56.5845 18.9999 56.5857 18.9999 56.5866 18.9999C57.5608 18.998 58.4678 18.7105 59.2286 18.2167L57.8767 15.9928C57.5083 16.2494 57.0603 16.3999 56.5773 16.3999C55.32 16.3999 54.3009 15.3809 54.3009 14.1238V10.6H58.5006V7.99998H54.3009V7.79999V4H51.6999V7.99998H50.3008V10.6H51.6999L51.7008 14.2Z" fill="#A3A3A3"/>
<path fill-rule="evenodd" clip-rule="evenodd" d="M65.7083 16.1098C67.7957 16.1098 69.4875 14.4177 69.4875 12.3305C69.4875 10.2432 67.7957 8.55119 65.7083 8.55119C63.6209 8.55119 61.9291 10.2432 61.9291 12.3305C61.9291 14.4177 63.6209 16.1098 65.7083 16.1098ZM65.7083 18.9998C69.3916 18.9998 72.3775 16.0139 72.3775 12.3305C72.3775 8.64711 69.3916 5.66113 65.7083 5.66113C62.025 5.66113 59.0391 8.64711 59.0391 12.3305C59.0391 16.0139 62.025 18.9998 65.7083 18.9998Z" fill="#A3A3A3"/>
<path d="M73.3086 18.9855V4.01562H76.0146V12.3098C76.6541 12.1749 77.2618 11.9119 77.8376 11.5208C78.4135 11.1162 78.9124 10.597 79.3345 9.96313C79.7566 9.32926 79.9484 8.83827 80.1147 8.0156H82.9934C82.7885 8.87873 82.5585 9.44389 82.098 10.1857C81.6503 10.9274 81.1257 11.5748 80.5243 12.1277C79.9228 12.6806 79.2961 13.092 78.6437 13.3617C79.1427 13.5101 79.6416 13.7663 80.1406 14.1304C80.6395 14.4811 81.1063 14.9126 81.5412 15.4251C81.9765 15.9241 82.3473 16.4771 82.6544 17.084C82.9616 17.6908 83.1662 18.3247 83.2687 18.9855H80.3899C80.2621 18.3652 80.0509 17.8055 79.7566 17.3065C79.4623 16.794 79.1171 16.3489 78.7203 15.9713C78.3366 15.5802 77.9079 15.2633 77.4346 15.0205C76.9741 14.7778 76.5007 14.6294 76.0146 14.5755V18.9855H73.3086Z" fill="#A3A3A3"/>
<path d="M84.0469 4H86.8466V4.2C86.8466 5.74639 85.5931 6.99997 84.0469 6.99997V4Z" fill="#A3A3A3"/>
<path d="M86.8469 8H84.0469V18.9999H86.8469V8Z" fill="#A3A3A3"/>
<path fill-rule="evenodd" clip-rule="evenodd" d="M89.0211 14.2C89.0211 14.2137 89.0211 14.2274 89.0211 14.2412V13.3999V14.1238C89.0211 16.8133 91.1988 18.9942 93.8867 18.9999C93.8879 18.9999 93.8888 18.9999 93.8898 18.9999C93.8923 18.9999 93.8948 18.9999 93.8973 18.9999C93.8998 18.9999 93.9023 18.9999 93.9048 18.9999C93.906 18.9999 93.907 18.9999 93.9079 18.9999C94.8818 18.9979 95.7884 18.7104 96.5489 18.2167L95.1967 15.9928C94.8283 16.2494 94.3803 16.3999 93.8973 16.3999C92.6403 16.3999 91.6212 15.3809 91.6212 14.1238V10.6H95.8209V7.99998H91.6212V7.79999H91.6209V4H89.0202V7.99998H87.6211V10.6H89.0202L89.0211 14.2Z" fill="#A3A3A3"/>
</svg>
