<svg width="143" height="23" viewBox="0 0 143 23" fill="none" xmlns="http://www.w3.org/2000/svg">
<g clip-path="url(#clip0_14285_23058)">
<path d="M95.4121 17.8948H96.8208V13.2592C97.3573 14.0654 98.4307 14.67 99.6381 14.67C101.852 14.67 103.596 12.7889 103.596 10.4376C103.596 8.15337 101.852 6.20508 99.6381 6.20508C98.4307 6.20508 97.3573 6.80973 96.8208 7.6159V6.33944H95.4121V17.8948ZM102.187 10.4376C102.187 12.0499 101.047 13.3936 99.4368 13.3936C97.8269 13.3936 96.6865 12.1171 96.6865 10.4376C96.6865 8.82518 97.8269 7.48154 99.4368 7.48154C101.047 7.54872 102.187 8.82518 102.187 10.4376Z" fill="#A3A3A3"/>
<path d="M105.607 14.4688H107.016V2.37598H105.607V14.4688Z" fill="#A3A3A3"/>
<path d="M108.961 10.4378C108.961 12.7219 110.638 14.6702 112.919 14.6702C114.126 14.6702 115.199 14.0656 115.736 13.2594V14.5358H117.145V6.474H115.736V7.75046C115.199 6.94427 114.126 6.33964 112.919 6.33964C110.705 6.27245 108.961 8.15354 108.961 10.4378ZM115.87 10.4378C115.87 12.0501 114.73 13.3938 113.12 13.3938C111.51 13.3938 110.37 12.1173 110.37 10.4378C110.37 8.82537 111.51 7.48173 113.12 7.48173C114.797 7.54891 115.87 8.82537 115.87 10.4378Z" fill="#A3A3A3"/>
<path d="M121.908 17.8949L127.207 6.40674H125.664L122.914 12.5203L120.164 6.40674H118.621L122.176 14.0655L120.432 17.8949H121.908Z" fill="#A3A3A3"/>
<path d="M127.811 10.4378C127.811 12.7892 129.487 14.6703 131.969 14.6703C133.646 14.6703 134.854 13.9313 135.592 12.722L134.518 11.983C134.049 12.8564 133.244 13.3938 131.969 13.3938C130.359 13.3938 129.219 12.2517 129.152 10.7737H135.793C135.793 10.5722 135.793 10.505 135.793 10.3706C135.793 7.75052 134.049 6.3397 131.969 6.3397C129.555 6.27251 127.811 8.08644 127.811 10.4378ZM131.969 7.48179C133.177 7.48179 134.25 8.28799 134.451 9.63162H129.353C129.555 8.28799 130.762 7.48179 131.969 7.48179Z" fill="#A3A3A3"/>
<path d="M137.805 14.4689H139.213V10.438C139.213 8.55685 140.354 7.68349 141.36 7.68349C141.628 7.68349 141.829 7.68349 142.098 7.81785V6.40703C141.896 6.33984 141.695 6.33984 141.494 6.33984C140.555 6.33984 139.549 6.94447 139.213 8.0194V6.47421H137.805V14.4689Z" fill="#A3A3A3"/>
<path d="M2.62488 12.3114V15.6586H-0.177734V4.8418H4.56379C5.15133 4.8418 5.68598 4.92401 6.16781 5.08843C6.64958 5.25289 7.06084 5.49362 7.40166 5.81072C7.75419 6.11612 8.02443 6.50369 8.21247 6.97345C8.41222 7.43147 8.51213 7.9659 8.51213 8.57657C8.51213 9.17555 8.41222 9.70996 8.21247 10.1797C8.02443 10.6378 7.75419 11.0253 7.40166 11.3424C7.06084 11.6595 6.64958 11.9003 6.16781 12.0647C5.68598 12.2292 5.15133 12.3114 4.56379 12.3114H2.62488ZM5.74477 8.57657C5.74477 8.16553 5.62724 7.83666 5.39225 7.59002C5.1572 7.34338 4.78117 7.22008 4.26413 7.22008H2.62488V9.93308H4.26413C4.78117 9.93308 5.1572 9.80976 5.39225 9.56312C5.62724 9.31649 5.74477 8.98768 5.74477 8.57657Z" fill="#A3A3A3"/>
<path d="M13.4042 12.0823V15.6586H10.6016V4.8418H15.4665C16.054 4.8418 16.5887 4.92401 17.0705 5.08843C17.5523 5.25289 17.9636 5.49362 18.3044 5.81072C18.6568 6.11612 18.9271 6.49778 19.1152 6.95581C19.3032 7.41386 19.3972 7.93651 19.3972 8.52373C19.3972 9.09922 19.3032 9.61013 19.1152 10.0564C18.9271 10.491 18.6568 10.8609 18.3044 11.1663C17.9987 11.4247 17.6463 11.6302 17.2468 11.7829L19.785 15.6586H16.6474L14.3913 12.0823H13.4042ZM13.4042 9.82738H15.1668C15.6721 9.82738 16.0423 9.70996 16.2773 9.47503C16.5123 9.24017 16.6298 8.92306 16.6298 8.52373C16.6298 8.12445 16.5123 7.80734 16.2773 7.57241C16.0423 7.33755 15.6721 7.22008 15.1668 7.22008H13.4042V9.82738Z" fill="#A3A3A3"/>
<path d="M29.3592 4.8418V7.27293H24.3886V8.96414H28.9185V11.3424H24.3886V13.2098H29.3592V15.6586H21.6035V4.8418H29.3592Z" fill="#A3A3A3"/>
<path d="M33.9885 12.452C34.1061 12.8278 34.3118 13.1097 34.6053 13.2976C34.911 13.4737 35.287 13.5618 35.7335 13.5618C35.9451 13.5618 36.1389 13.5384 36.3152 13.4914C36.5032 13.4444 36.656 13.3798 36.7736 13.2976C36.9027 13.2036 37.0026 13.0921 37.0731 12.9629C37.1554 12.8337 37.1964 12.6869 37.1964 12.5224C37.1964 12.2641 37.1084 12.0703 36.932 11.9411C36.7676 11.8119 36.5149 11.7062 36.1742 11.624L34.0942 11.1835C33.6947 11.1014 33.3187 10.9839 32.9662 10.8312C32.6255 10.6786 32.3316 10.4848 32.0848 10.2498C31.8381 10.0032 31.6441 9.70963 31.5031 9.36899C31.3621 9.02843 31.2917 8.6291 31.2917 8.17105C31.2917 7.64255 31.3974 7.16103 31.609 6.72647C31.8204 6.29195 32.1142 5.92785 32.4902 5.63422C32.8663 5.32888 33.307 5.09401 33.8122 4.92954C34.3175 4.75337 34.864 4.66528 35.4514 4.66528C36.1212 4.66528 36.7147 4.75337 37.2317 4.92954C37.7488 5.09401 38.1895 5.32888 38.5537 5.63422C38.9299 5.92785 39.2294 6.27433 39.4527 6.67361C39.676 7.07294 39.8288 7.50752 39.9109 7.97726H37.126C37.0203 7.67192 36.8323 7.42529 36.5619 7.23736C36.3035 7.03771 35.9392 6.93787 35.4691 6.93787C35.2694 6.93787 35.0873 6.95548 34.9227 6.99073C34.7582 7.02595 34.6172 7.09058 34.4996 7.1845C34.3822 7.26674 34.2882 7.36659 34.2176 7.484C34.1589 7.58969 34.1295 7.71893 34.1295 7.87157C34.1295 7.98904 34.1472 8.09472 34.1824 8.18867C34.2176 8.28266 34.2765 8.36485 34.3586 8.43531C34.4409 8.50578 34.5349 8.56453 34.6406 8.61148C34.7582 8.65847 34.8874 8.69956 35.0284 8.73479L37.1437 9.22806C38.0719 9.45123 38.7829 9.82119 39.2764 10.3379C39.7699 10.843 40.0168 11.5124 40.0168 12.3463C40.0168 12.8983 39.9051 13.3916 39.6818 13.8261C39.4704 14.2606 39.1707 14.6247 38.7829 14.9183C38.4069 15.212 37.9604 15.441 37.4433 15.6054C36.938 15.7581 36.3856 15.8344 35.7864 15.8344C34.482 15.8344 33.4127 15.5408 32.5783 14.9536C31.7441 14.3546 31.2329 13.5208 31.0449 12.452H33.9885Z" fill="#A3A3A3"/>
<path d="M41.6367 4.8418H51.1549V7.27293H47.8059V15.6586H44.968V7.27293H41.6367V4.8418Z" fill="#A3A3A3"/>
<path d="M62.8202 10.2498C62.8202 11.0602 62.6905 11.806 62.4324 12.4872C62.1736 13.1684 61.8093 13.7556 61.3396 14.2489C60.8812 14.7422 60.3229 15.1297 59.665 15.4116C59.0186 15.6935 58.3016 15.8344 57.5146 15.8344C56.7391 15.8344 56.028 15.6935 55.3817 15.4116C54.7353 15.1297 54.1772 14.7422 53.7071 14.2489C53.2489 13.7556 52.8905 13.1684 52.6319 12.4872C52.3735 11.806 52.2441 11.0602 52.2441 10.2498C52.2441 9.43947 52.3735 8.6937 52.6319 8.0125C52.8905 7.33136 53.2489 6.74409 53.7071 6.25081C54.1772 5.74583 54.7353 5.35826 55.3817 5.0881C56.028 4.80622 56.7391 4.66528 57.5146 4.66528C58.3016 4.66528 59.0186 4.80622 59.665 5.0881C60.3229 5.35826 60.8812 5.74583 61.3396 6.25081C61.8093 6.74409 62.1736 7.33136 62.4324 8.0125C62.6905 8.6937 62.8202 9.43947 62.8202 10.2498ZM59.9647 10.2498C59.9647 9.7801 59.9056 9.3573 59.7884 8.98142C59.6708 8.60563 59.5065 8.28266 59.2949 8.0125C59.0834 7.73064 58.8247 7.51923 58.5194 7.3783C58.2134 7.22565 57.8786 7.14927 57.5146 7.14927C57.1501 7.14927 56.8209 7.22565 56.5276 7.3783C56.2337 7.51923 55.9751 7.73064 55.7518 8.0125C55.5403 8.28266 55.3757 8.60563 55.2583 8.98142C55.1526 9.3573 55.0996 9.7801 55.0996 10.2498C55.0996 10.7196 55.1526 11.1425 55.2583 11.5183C55.3757 11.8941 55.5403 12.2229 55.7518 12.5048C55.9751 12.775 56.2337 12.9864 56.5276 13.139C56.8209 13.28 57.1501 13.3504 57.5146 13.3504C57.8786 13.3504 58.2134 13.28 58.5194 13.139C58.8247 12.9864 59.0834 12.775 59.2949 12.5048C59.5065 12.2229 59.6708 11.8941 59.7884 11.5183C59.9056 11.1425 59.9647 10.7196 59.9647 10.2498Z" fill="#A3A3A3"/>
<path d="M81.498 11.171L87.9311 7.45898V14.8831L81.498 11.171Z" fill="#A3A3A3"/>
<path d="M81.5 3.74731L87.933 7.4594L81.5 11.1715V3.74731Z" fill="#A3A3A3"/>
<path d="M81.4996 3.74707V11.1712L75.0664 7.45912L81.4996 3.74707Z" fill="#A3A3A3"/>
<path d="M81.5151 3.7409L75.082 7.45297V0.0288086L81.5151 3.7409Z" fill="#A3A3A3"/>
<path d="M75.0849 7.46167V14.8858L68.6523 11.1737L75.0849 7.46167Z" fill="#A3A3A3"/>
<path d="M75.0849 0.0549316V7.47909L68.6523 3.76702L75.0849 0.0549316Z" fill="#A3A3A3"/>
<path d="M75.0849 14.877V22.3012L68.6523 18.5891L75.0849 14.877Z" fill="#A3A3A3"/>
<path d="M81.5 11.1714L87.933 14.8835L81.5 18.5955V11.1714Z" fill="#A3A3A3"/>
<path d="M68.6543 11.1714L75.0875 14.8835L68.6543 18.5955V11.1714Z" fill="#A3A3A3"/>
<path d="M68.6543 3.75317L75.0875 7.46528L68.6543 11.1773V3.75317Z" fill="#A3A3A3"/>
<path d="M81.4996 11.1711V18.5953L75.0664 14.8832L81.4996 11.1711Z" fill="#A3A3A3"/>
</g>
<defs>
<clipPath id="clip0_14285_23058">
<rect width="142.8" height="22.4" fill="white"/>
</clipPath>
</defs>
</svg>
