<svg width="111" height="26" viewBox="0 0 111 26" fill="none" xmlns="http://www.w3.org/2000/svg">
<path d="M12.6006 0C19.5592 0.000158122 25.2002 5.6419 25.2002 12.6006C25.1999 19.5591 19.5591 25.2 12.6006 25.2002C5.64196 25.2002 0.000263673 19.5591 0 12.6006C0 5.6418 5.6418 0 12.6006 0ZM8.78418 8.45996C6.80418 9.61196 7.27204 12.7443 9.54004 13.3203L13.2842 14.3281C13.6079 14.4002 13.6439 14.8316 13.3564 15.0117L9.75586 17.1357L9.36035 20.8799L16.3799 16.7402C18.3599 15.5882 17.892 12.4559 15.624 11.8799L11.8799 10.8721C11.5562 10.8 11.5202 10.3686 11.8076 10.1885L15.4082 8.06445L15.8037 4.32031L8.78418 8.45996Z" fill="#A3A3A3"/>
<path d="M35.0223 18.6844C33.8295 18.6844 32.7813 18.5044 31.8777 18.1084C30.9379 17.7124 30.215 17.1724 29.6367 16.4884L31.7331 14.7244C32.203 15.2644 32.7813 15.6244 33.3958 15.8764C34.0102 16.0924 34.6247 16.2004 35.2753 16.2004C35.7813 16.2004 36.1789 16.0924 36.5042 15.8764C36.8295 15.6604 36.9741 15.3364 36.9741 14.9404C36.9741 14.5804 36.8295 14.2924 36.5403 14.1124C36.2512 13.9324 35.5644 13.6804 34.4439 13.3924C32.8174 12.9604 31.6608 12.4204 30.9741 11.7004C30.3596 11.0524 30.0705 10.2604 30.0705 9.32443C30.0705 8.56843 30.2873 7.92043 30.7572 7.34443C31.2271 6.76843 31.8054 6.30044 32.5644 6.01244C33.3235 5.72444 34.1186 5.54443 34.9861 5.54443C35.9982 5.54443 36.9379 5.72443 37.8415 6.08443C38.7451 6.44443 39.468 6.91243 40.0825 7.52443L38.2753 9.46843C37.8054 9.03643 37.2994 8.71243 36.6849 8.42443C36.1066 8.13643 35.5644 7.99244 35.0584 7.99244C33.9018 7.99244 33.3235 8.38844 33.3235 9.18044C33.3235 9.57644 33.5042 9.86444 33.8656 10.0804C34.1909 10.2964 34.9138 10.5844 36.0704 10.8724C37.6247 11.2684 38.6729 11.8084 39.3235 12.4564C39.8656 13.0324 40.1548 13.7524 40.1548 14.6884C40.1548 15.4444 39.9379 16.1644 39.468 16.7404C39.0343 17.3524 38.4198 17.8204 37.6608 18.1804C36.8295 18.5404 35.962 18.6844 35.0223 18.6844Z" fill="#A3A3A3"/>
<path d="M62.2386 18.6847C60.8651 18.6847 59.6723 18.3967 58.6241 17.8567C57.5759 17.2807 56.7807 16.5247 56.2024 15.5527C55.6241 14.5807 55.3711 13.4646 55.3711 12.1686C55.3711 10.8366 55.6603 9.68466 56.2024 8.71266C56.7807 7.70466 57.5398 6.91265 58.5157 6.33665C59.4916 5.76065 60.6482 5.47266 61.9133 5.47266C63.0699 5.47266 64.0819 5.76065 64.9855 6.30065C65.9253 6.84065 66.612 7.59666 67.1181 8.53266C67.6241 9.46866 67.8771 10.5487 67.841 11.7727L67.8048 12.8167H58.588C58.7687 13.7167 59.2024 14.4367 59.8892 14.9767C60.6121 15.5167 61.5157 15.7686 62.5639 15.7686C63.1422 15.7686 63.6843 15.6967 64.1542 15.5167C64.6241 15.3367 65.1663 15.0127 65.7084 14.5807L67.2988 16.7767C66.612 17.3887 65.8169 17.8567 64.9133 18.1807C64.0458 18.5407 63.1422 18.6847 62.2386 18.6847ZM61.9133 8.31665C60.0699 8.31665 58.9855 9.14465 58.6241 10.7646H64.6964V10.6567C64.6602 9.97265 64.3711 9.39665 63.8289 8.96465C63.2867 8.53265 62.6723 8.31665 61.9133 8.31665Z" fill="#A3A3A3"/>
<path d="M75.4659 18.685C74.237 18.685 73.1527 18.397 72.1768 17.821C71.237 17.245 70.478 16.453 69.8997 15.481C69.3575 14.473 69.0684 13.357 69.0684 12.097C69.0684 10.837 69.3575 9.72104 69.8997 8.71304C70.478 7.70504 71.237 6.94904 72.1768 6.37304C73.1527 5.79704 74.237 5.50903 75.4659 5.50903C76.6226 5.50903 77.6708 5.72504 78.6105 6.12104C79.5503 6.55304 80.3093 7.12904 80.8515 7.88504L79.0442 10.045C78.7189 9.57704 78.2491 9.18104 77.6346 8.85704C77.0202 8.53304 76.4418 8.35304 75.8274 8.35304C75.1406 8.35304 74.5262 8.53304 74.0202 8.85704C73.5141 9.18104 73.0804 9.61303 72.7912 10.189C72.5021 10.765 72.3575 11.377 72.3575 12.097C72.3575 12.817 72.5021 13.429 72.8274 14.005C73.1165 14.581 73.5503 15.013 74.0924 15.337C74.6346 15.661 75.2129 15.805 75.8997 15.805C76.5141 15.805 77.1286 15.661 77.6346 15.409C78.1768 15.121 78.6467 14.725 79.0804 14.221L80.8876 16.381C80.3455 17.101 79.5864 17.641 78.6105 18.073C77.5623 18.469 76.5503 18.685 75.4659 18.685Z" fill="#A3A3A3"/>
<path d="M85.2998 18.4685C83.7094 18.4685 82.4082 17.1725 82.4082 15.5885V8.71251V5.76051V3.96051L85.6974 2.52051V5.76051H88.1913V8.71251H85.6974V14.7605C85.6974 15.1565 86.0227 15.4805 86.4202 15.4805H88.1913V18.4685H85.2998Z" fill="#A3A3A3"/>
<path d="M89.7441 18.4686V5.76065H92.5996L92.9971 7.84865C93.4309 7.16465 93.9731 6.58865 94.6598 6.15665C95.3465 5.72465 96.0694 5.47266 96.8285 5.47266C97.1176 5.47266 97.3706 5.50865 97.6236 5.54465C97.8767 5.58065 98.0935 5.61665 98.2743 5.68865L97.3706 9.28865C97.1899 9.18065 96.973 9.10865 96.6839 9.03665C96.3947 8.96465 96.1417 8.92865 95.8526 8.92865C95.0574 8.92865 94.4068 9.21665 93.8285 9.75665C93.2863 10.2967 93.0333 10.9447 93.0333 11.7727V18.3967H89.7441V18.4686Z" fill="#A3A3A3"/>
<path d="M41.7441 22.6801V5.79608H44.7803L45.1779 7.20008C46.1899 6.19208 47.3827 5.58008 48.8285 5.58008C49.6959 5.58008 50.455 5.76008 51.1056 6.12008C51.7562 6.48008 52.2983 6.94808 52.7321 7.56008C53.1658 8.17208 53.4911 8.82008 53.708 9.57608C53.9248 10.3321 54.0333 11.0881 54.0333 11.8801C54.0333 12.6721 53.9248 13.4281 53.708 14.1841C53.4911 14.9401 53.1658 15.6241 52.7321 16.2361C52.2983 16.8481 51.7562 17.3161 51.1056 17.6761C50.455 18.0361 49.6959 18.2161 48.8285 18.2161C47.708 18.2161 45.9008 17.8201 45.1779 16.8841V21.2041L41.7441 22.6801ZM45.0694 11.8801C45.0694 12.4561 45.1779 12.9961 45.3586 13.5361C45.5755 14.0761 45.8646 14.5081 46.2622 14.8681C46.6959 15.1921 47.202 15.3721 47.8164 15.3721C48.4309 15.3721 48.9369 15.1921 49.3345 14.8681C49.7682 14.5081 50.0574 14.0761 50.2381 13.5361C50.455 12.9961 50.5634 12.4561 50.5634 11.8801C50.5634 11.3041 50.455 10.7641 50.2381 10.2241C50.0574 9.68408 49.7321 9.25207 49.3345 8.92807C48.9369 8.56807 48.4309 8.38807 47.8164 8.38807C47.202 8.38807 46.6959 8.56807 46.2622 8.92807C45.8646 9.25207 45.5393 9.72008 45.3586 10.2241C45.1779 10.7641 45.0694 11.3401 45.0694 11.8801Z" fill="#A3A3A3"/>
<path d="M107.164 17.1014C106.224 18.0374 105.031 18.5774 103.73 18.5774C100.73 18.5774 98.3086 15.6254 98.3086 11.9894C98.3086 8.35336 100.73 5.40137 103.73 5.40137C105.031 5.40137 106.224 5.94137 107.164 6.87737V5.76137H110.598V18.4334H107.525L107.164 17.1014ZM107.164 10.6574C106.73 9.21737 105.61 8.17337 104.272 8.17337C102.574 8.17337 101.2 9.86537 101.2 11.9534C101.2 14.0414 102.574 15.7334 104.272 15.7334C105.61 15.7334 106.73 14.6894 107.164 13.2494C107.272 12.8534 107.345 12.4214 107.345 11.9534C107.345 11.5214 107.272 11.1254 107.2 10.7294C107.164 10.6934 107.164 10.6934 107.164 10.6574Z" fill="#A3A3A3"/>
</svg>
