<svg width="86" height="26" viewBox="0 0 86 26" fill="none" xmlns="http://www.w3.org/2000/svg">
<g clip-path="url(#clip0_14285_23095)">
<path d="M34.1765 11.4451C33.653 11.4451 33.1668 11.348 32.718 11.1539C32.2692 10.9523 31.8879 10.6797 31.5736 10.3363C31.2595 9.99281 31.0277 9.59707 30.8782 9.14909L32.0001 8.67868C32.202 9.19387 32.4974 9.58961 32.8862 9.86589C33.2753 10.1421 33.7241 10.2803 34.2326 10.2803C34.5319 10.2803 34.7935 10.2355 35.018 10.1459C35.2423 10.0488 35.4144 9.91442 35.5341 9.74267C35.6612 9.57095 35.7248 9.37308 35.7248 9.14909C35.7248 8.84296 35.6387 8.60029 35.4668 8.42108C35.2947 8.24189 35.0404 8.10002 34.7037 7.99549L33.1331 7.50268C32.5049 7.30855 32.0263 7.01361 31.6971 6.61787C31.368 6.21467 31.2034 5.74428 31.2034 5.20667C31.2034 4.73628 31.3195 4.32562 31.5513 3.97468C31.7831 3.61629 32.101 3.33628 32.5049 3.13468C32.9163 2.93308 33.3838 2.83228 33.9073 2.83228C34.4083 2.83228 34.8646 2.92188 35.276 3.10109C35.6874 3.27282 36.0389 3.51175 36.3307 3.81789C36.6297 4.12402 36.8467 4.47868 36.9814 4.88188L35.8819 5.36347C35.7173 4.92296 35.4593 4.58322 35.1076 4.34428C34.7637 4.10534 34.3634 3.98588 33.9073 3.98588C33.6306 3.98588 33.3874 4.03441 33.178 4.13148C32.9685 4.22109 32.8042 4.35547 32.6843 4.53468C32.5721 4.7064 32.5161 4.908 32.5161 5.13948C32.5161 5.40827 32.6022 5.64721 32.7741 5.85628C32.9462 6.06534 33.2081 6.22214 33.5595 6.32669L35.018 6.78589C35.6836 6.98749 36.1848 7.27867 36.5212 7.65948C36.8578 8.0328 37.026 8.49949 37.026 9.05949C37.026 9.52242 36.9027 9.93308 36.6559 10.2915C36.4166 10.6499 36.0838 10.9336 35.6574 11.1427C35.2311 11.3443 34.7374 11.4451 34.1765 11.4451ZM40.9018 11.3779C40.2661 11.3779 39.7724 11.1987 39.421 10.8403C39.0695 10.4819 38.8938 9.97788 38.8938 9.32828V6.39388H37.828V5.25148H37.9962C38.2804 5.25148 38.5011 5.16936 38.6581 5.00507C38.8151 4.84081 38.8938 4.61682 38.8938 4.33308V3.86269H40.1615V5.25148H41.5414V6.39388H40.1615V9.27228C40.1615 9.48134 40.195 9.66055 40.2625 9.80989C40.3297 9.95176 40.4382 10.0638 40.5877 10.1459C40.7375 10.2206 40.9319 10.2579 41.1712 10.2579C41.2309 10.2579 41.2984 10.2542 41.3732 10.2467C41.4479 10.2392 41.519 10.2317 41.5863 10.2243V11.3107C41.4817 11.3256 41.3656 11.3405 41.2384 11.3555C41.1113 11.3704 40.9991 11.3779 40.9018 11.3779ZM44.4739 11.4451C44.0625 11.4451 43.6999 11.3742 43.3858 11.2323C43.079 11.0829 42.8397 10.8814 42.6676 10.6275C42.4957 10.3662 42.4096 10.06 42.4096 9.70909C42.4096 9.38054 42.4807 9.08561 42.6229 8.82428C42.7724 8.56295 43.0006 8.34269 43.3071 8.16348C43.6137 7.98427 43.9989 7.85735 44.4627 7.78267L46.572 7.43549V8.43227L44.7096 8.75709C44.3729 8.81682 44.1261 8.92508 43.969 9.08188C43.812 9.23121 43.7336 9.42535 43.7336 9.66429C43.7336 9.89574 43.8195 10.0861 43.9916 10.2355C44.171 10.3773 44.3991 10.4483 44.6758 10.4483C45.02 10.4483 45.319 10.3736 45.5734 10.2243C45.8351 10.0749 46.037 9.87708 46.1792 9.63068C46.3212 9.37681 46.3924 9.09683 46.3924 8.79067V7.23389C46.3924 6.93522 46.2802 6.69255 46.0559 6.50588C45.839 6.31174 45.5472 6.21467 45.1807 6.21467C44.8443 6.21467 44.5487 6.30428 44.2945 6.48349C44.0477 6.65521 43.8644 6.87923 43.7448 7.15548L42.6902 6.62909C42.8023 6.33042 42.9855 6.06907 43.2399 5.84508C43.494 5.6136 43.7897 5.43442 44.1261 5.30747C44.4703 5.18055 44.8329 5.11709 45.2144 5.11709C45.6931 5.11709 46.1157 5.20667 46.4822 5.38588C46.8562 5.56507 47.1441 5.8152 47.346 6.13629C47.5555 6.44988 47.6601 6.81574 47.6601 7.23389V11.3107H46.4484V10.2131L46.7064 10.2467C46.5644 10.4931 46.3812 10.7059 46.1569 10.8851C45.9399 11.0643 45.6894 11.2024 45.4052 11.2995C45.1283 11.3965 44.8181 11.4451 44.4739 11.4451ZM49.0302 11.3107V5.25148H50.2419V6.47227L50.1297 6.29308C50.2645 5.89735 50.4812 5.6136 50.7805 5.44188C51.0795 5.26267 51.4387 5.17309 51.8574 5.17309H52.2278V6.32669H51.7004C51.2815 6.32669 50.9412 6.45734 50.6795 6.71867C50.4251 6.97254 50.298 7.33842 50.298 7.81628V11.3107H49.0302ZM55.7176 11.3779C55.082 11.3779 54.5883 11.1987 54.2368 10.8403C53.8851 10.4819 53.7094 9.97788 53.7094 9.32828V6.39388H52.6436V5.25148H52.8118C53.096 5.25148 53.3167 5.16936 53.4737 5.00507C53.631 4.84081 53.7094 4.61682 53.7094 4.33308V3.86269H54.9771V5.25148H56.3572V6.39388H54.9771V9.27228C54.9771 9.48134 55.0108 9.66055 55.0781 9.80989C55.1455 9.95176 55.2538 10.0638 55.4036 10.1459C55.5531 10.2206 55.7475 10.2579 55.9868 10.2579C56.0468 10.2579 56.114 10.2542 56.1888 10.2467C56.2635 10.2392 56.3346 10.2317 56.4019 10.2243V11.3107C56.2973 11.3256 56.1812 11.3405 56.0543 11.3555C55.9271 11.3704 55.8147 11.3779 55.7176 11.3779ZM60.2669 11.4451C59.6611 11.4451 59.1228 11.3069 58.6514 11.0307C58.1878 10.7469 57.8249 10.3662 57.5633 9.88828C57.3014 9.40296 57.1706 8.86162 57.1706 8.26428C57.1706 7.65202 57.3014 7.11068 57.5633 6.64029C57.8325 6.16987 58.1914 5.80028 58.6402 5.53149C59.089 5.25521 59.5975 5.11709 60.166 5.11709C60.6223 5.11709 61.0298 5.19548 61.389 5.35228C61.748 5.50907 62.0509 5.72562 62.2978 6.00188C62.5444 6.27067 62.7315 6.58056 62.8587 6.93149C62.9932 7.28243 63.0606 7.65575 63.0606 8.05149C63.0606 8.14856 63.0568 8.24935 63.0492 8.35389C63.0419 8.45842 63.0269 8.55549 63.0046 8.64509H58.1691V7.63709H62.2864L61.6805 8.09629C61.7555 7.7304 61.7293 7.40562 61.6021 7.12187C61.4825 6.83069 61.2953 6.60295 61.0412 6.43869C60.7944 6.26694 60.5026 6.18109 60.166 6.18109C59.8296 6.18109 59.5303 6.26694 59.2686 6.43869C59.0067 6.60295 58.8048 6.84189 58.6628 7.15548C58.5206 7.46161 58.4645 7.83494 58.4943 8.27548C58.457 8.68614 58.513 9.04456 58.6628 9.35069C58.8198 9.65682 59.0366 9.89574 59.3133 10.0675C59.5975 10.2392 59.9191 10.3251 60.2783 10.3251C60.6448 10.3251 60.955 10.2429 61.2094 10.0787C61.4713 9.91442 61.6769 9.70163 61.8264 9.44027L62.8587 9.94427C62.739 10.228 62.5519 10.4856 62.2978 10.7171C62.0509 10.9411 61.7516 11.1203 61.4002 11.2547C61.056 11.3816 60.6783 11.4451 60.2669 11.4451ZM64.1856 11.3107V5.25148H65.3973V6.47227L65.2852 6.29308C65.4196 5.89735 65.6366 5.6136 65.9359 5.44188C66.2349 5.26267 66.5939 5.17309 67.0128 5.17309H67.383V6.32669H66.8558C66.4369 6.32669 66.0966 6.45734 65.8349 6.71867C65.5805 6.97254 65.4534 7.33842 65.4534 7.81628V11.3107H64.1856ZM32.7292 22.6991V15.5311H30.5078V14.3551H36.2297V15.5311H34.0418V22.6991H32.7292ZM39.0447 22.8335C38.4389 22.8335 37.9003 22.6954 37.4292 22.4191C36.9654 22.1354 36.6025 21.7546 36.3408 21.2767C36.079 20.7914 35.9481 20.2501 35.9481 19.6527C35.9481 19.0405 36.079 18.4991 36.3408 18.0288C36.61 17.5583 36.969 17.1887 37.4178 16.9199C37.8666 16.6437 38.3753 16.5056 38.9438 16.5056C39.3998 16.5056 39.8076 16.5839 40.1666 16.7407C40.5256 16.8975 40.8285 17.1141 41.0753 17.3903C41.3222 17.6591 41.5091 17.969 41.6363 18.32C41.771 18.6709 41.8382 19.0442 41.8382 19.44C41.8382 19.537 41.8343 19.6378 41.827 19.7424C41.8195 19.8469 41.8045 19.944 41.7821 20.0336H36.9467V19.0256H41.0642L40.4583 19.4848C40.5331 19.1189 40.5069 18.7941 40.3797 18.5103C40.26 18.2192 40.0731 17.9914 39.8188 17.8272C39.5719 17.6554 39.2802 17.5696 38.9438 17.5696C38.6071 17.5696 38.3078 17.6554 38.0462 17.8272C37.7843 17.9914 37.5824 18.2304 37.4404 18.5439C37.2981 18.8501 37.2421 19.2234 37.2719 19.6639C37.2345 20.0746 37.2906 20.433 37.4404 20.7392C37.5974 21.0453 37.8142 21.2842 38.0911 21.456C38.3753 21.6277 38.6969 21.7135 39.0559 21.7135C39.4224 21.7135 39.7326 21.6314 39.987 21.4671C40.2489 21.3029 40.4545 21.0901 40.604 20.8287L41.6363 21.3327C41.5166 21.6165 41.3295 21.8741 41.0753 22.1056C40.8285 22.3295 40.5292 22.5088 40.1778 22.6431C39.8336 22.7701 39.4559 22.8335 39.0447 22.8335ZM42.9632 22.6991V16.6399H44.1749V17.9503L44.0178 17.7487C44.145 17.3381 44.3768 17.0282 44.7135 16.8191C45.0499 16.6101 45.4351 16.5056 45.869 16.5056C46.3552 16.5056 46.7851 16.6362 47.1591 16.8975C47.5407 17.1514 47.7948 17.4911 47.922 17.9168L47.563 17.9503C47.7426 17.465 48.0154 17.1029 48.3819 16.864C48.756 16.625 49.1824 16.5056 49.6611 16.5056C50.0797 16.5056 50.4577 16.6026 50.7941 16.7967C51.1382 16.9909 51.4111 17.2597 51.613 17.6031C51.8149 17.9466 51.9159 18.3386 51.9159 18.7792V22.6991H50.6482V19.1264C50.6482 18.8202 50.5921 18.5626 50.48 18.3535C50.3754 18.137 50.2256 17.9728 50.0312 17.8607C49.8443 17.7413 49.6237 17.6815 49.3693 17.6815C49.1149 17.6815 48.8907 17.7413 48.6962 17.8607C48.5016 17.9728 48.3484 18.137 48.2363 18.3535C48.1239 18.5701 48.0678 18.8277 48.0678 19.1264V22.6991H46.8113V19.1264C46.8113 18.8202 46.7552 18.5626 46.6431 18.3535C46.5385 18.137 46.3887 17.9728 46.1943 17.8607C46.0074 17.7413 45.7829 17.6815 45.5212 17.6815C45.2669 17.6815 45.0426 17.7413 44.8479 17.8607C44.6535 17.9728 44.5004 18.137 44.388 18.3535C44.2834 18.5701 44.2309 18.8277 44.2309 19.1264V22.6991H42.9632ZM53.1608 24.939V16.6399H54.3725V17.8943L54.2266 17.6031C54.4509 17.2597 54.7502 16.9909 55.1239 16.7967C55.498 16.6026 55.9244 16.5056 56.4031 16.5056C56.9791 16.5056 57.4951 16.6437 57.9511 16.9199C58.415 17.1962 58.7776 17.5733 59.0395 18.0511C59.3087 18.529 59.4434 19.0666 59.4434 19.6639C59.4434 20.2613 59.3087 20.7989 59.0395 21.2767C58.7776 21.7546 58.4186 22.1354 57.9626 22.4191C57.5062 22.6954 56.9863 22.8335 56.4031 22.8335C55.9317 22.8335 55.5019 22.7365 55.1128 22.5423C54.7315 22.3482 54.4358 22.0682 54.2266 21.7024L54.4286 21.4671V24.939H53.1608ZM56.2795 21.6576C56.6385 21.6576 56.9565 21.5717 57.2332 21.4C57.5099 21.2282 57.7269 20.993 57.8839 20.6944C58.0485 20.3882 58.1308 20.0448 58.1308 19.6639C58.1308 19.2832 58.0485 18.9434 57.8839 18.6447C57.7269 18.3461 57.5099 18.1109 57.2332 17.9391C56.9565 17.7674 56.6385 17.6815 56.2795 17.6815C55.9281 17.6815 55.6101 17.7674 55.3259 17.9391C55.0492 18.1109 54.8286 18.3461 54.664 18.6447C54.507 18.9434 54.4286 19.2832 54.4286 19.6639C54.4286 20.0448 54.507 20.3882 54.664 20.6944C54.8286 20.993 55.0492 21.2282 55.3259 21.4C55.6101 21.5717 55.9281 21.6576 56.2795 21.6576ZM60.5645 22.6991V14.2207H61.8322V22.6991H60.5645ZM65.0196 22.8335C64.6082 22.8335 64.2456 22.7626 63.9315 22.6207C63.6247 22.4714 63.3854 22.2698 63.2133 22.0159C63.0415 21.7546 62.9553 21.4485 62.9553 21.0976C62.9553 20.769 63.0264 20.4741 63.1686 20.2127C63.3182 19.9514 63.5463 19.7312 63.8529 19.5519C64.1597 19.3727 64.5449 19.2458 65.0085 19.1711L67.1177 18.824V19.8207L65.2553 20.1456C64.9186 20.2053 64.6718 20.3135 64.5148 20.4703C64.3577 20.6197 64.2793 20.8138 64.2793 21.0527C64.2793 21.2842 64.3652 21.4746 64.5373 21.6239C64.7167 21.7658 64.9449 21.8367 65.2216 21.8367C65.5657 21.8367 65.8648 21.7621 66.1191 21.6127C66.381 21.4634 66.583 21.2655 66.725 21.0191C66.8672 20.7653 66.9381 20.4853 66.9381 20.1791V18.6224C66.9381 18.3237 66.8259 18.081 66.6017 17.8943C66.3847 17.7002 66.0929 17.6031 65.7264 17.6031C65.39 17.6031 65.0944 17.6927 64.8403 17.872C64.5934 18.0437 64.4101 18.2677 64.2905 18.5439L63.2359 18.0176C63.348 17.7189 63.5313 17.4575 63.7856 17.2335C64.04 17.0021 64.3354 16.8229 64.6718 16.6959C65.016 16.569 65.3786 16.5056 65.7602 16.5056C66.2388 16.5056 66.6614 16.5951 67.0279 16.7743C67.4019 16.9535 67.6898 17.2037 67.8917 17.5247C68.1012 17.8383 68.2058 18.2042 68.2058 18.6224V22.6991H66.9941V21.6016L67.2522 21.6351C67.1102 21.8815 66.9269 22.0943 66.7026 22.2735C66.4856 22.4528 66.2352 22.5909 65.9509 22.6879C65.6742 22.785 65.3638 22.8335 65.0196 22.8335ZM72.0917 22.7663C71.4561 22.7663 70.9624 22.5871 70.6109 22.2287C70.2592 21.8703 70.0835 21.3663 70.0835 20.7167V17.7823H69.0177V16.6399H69.1859C69.4701 16.6399 69.6908 16.5578 69.8478 16.3935C70.0051 16.2293 70.0835 16.0053 70.0835 15.7215V15.2512H71.3512V16.6399H72.7313V17.7823H71.3512V20.6607C71.3512 20.8698 71.3849 21.049 71.4522 21.1984C71.5197 21.3402 71.6279 21.4522 71.7777 21.5343C71.9272 21.609 72.1216 21.6464 72.3609 21.6464C72.4209 21.6464 72.4881 21.6426 72.5629 21.6351C72.6376 21.6277 72.7087 21.6202 72.776 21.6127V22.6991C72.6714 22.7141 72.5553 22.729 72.4284 22.7439C72.3012 22.7589 72.1888 22.7663 72.0917 22.7663ZM76.641 22.8335C76.0352 22.8335 75.4968 22.6954 75.0255 22.4191C74.5619 22.1354 74.199 21.7546 73.9374 21.2767C73.6755 20.7914 73.5447 20.2501 73.5447 19.6527C73.5447 19.0405 73.6755 18.4991 73.9374 18.0288C74.2066 17.5583 74.5655 17.1887 75.0143 16.9199C75.4631 16.6437 75.9716 16.5056 76.5401 16.5056C76.9964 16.5056 77.4039 16.5839 77.7631 16.7407C78.1221 16.8975 78.425 17.1141 78.6719 17.3903C78.9185 17.6591 79.1056 17.969 79.2328 18.32C79.3673 18.6709 79.4347 19.0442 79.4347 19.44C79.4347 19.537 79.4309 19.6378 79.4233 19.7424C79.416 19.8469 79.401 19.944 79.3787 20.0336H74.5432V19.0256H78.6605L78.0546 19.4848C78.1294 19.1189 78.1034 18.7941 77.9762 18.5103C77.8566 18.2192 77.6694 17.9914 77.4153 17.8272C77.1685 17.6554 76.8767 17.5696 76.5401 17.5696C76.2037 17.5696 75.9044 17.6554 75.6427 17.8272C75.3808 17.9914 75.1789 18.2304 75.0369 18.5439C74.8947 18.8501 74.8386 19.2234 74.8685 19.6639C74.8311 20.0746 74.8871 20.433 75.0369 20.7392C75.1939 21.0453 75.4107 21.2842 75.6874 21.456C75.9716 21.6277 76.2932 21.7135 76.6524 21.7135C77.0187 21.7135 77.3291 21.6314 77.5835 21.4671C77.8454 21.3029 78.051 21.0901 78.2005 20.8287L79.2328 21.3327C79.1131 21.6165 78.926 21.8741 78.6719 22.1056C78.425 22.3295 78.1257 22.5088 77.7743 22.6431C77.4301 22.7701 77.0524 22.8335 76.641 22.8335ZM82.8034 22.8335C82.1828 22.8335 81.6367 22.6805 81.1656 22.3743C80.7017 22.0682 80.3765 21.6576 80.1896 21.1424L81.1656 20.6831C81.3301 21.0266 81.5544 21.2992 81.8386 21.5008C82.1304 21.7024 82.452 21.8032 82.8034 21.8032C83.1027 21.8032 83.3457 21.7359 83.5328 21.6016C83.7197 21.4671 83.8132 21.2842 83.8132 21.0527C83.8132 20.9034 83.7721 20.7839 83.6899 20.6944C83.6076 20.5973 83.503 20.5189 83.3758 20.4591C83.2561 20.3994 83.1326 20.3546 83.0054 20.3247L82.0517 20.0559C81.5282 19.9066 81.1357 19.6826 80.8738 19.384C80.6194 19.0778 80.4925 18.7232 80.4925 18.32C80.4925 17.9541 80.586 17.6367 80.7729 17.368C80.9597 17.0917 81.218 16.8789 81.5469 16.7295C81.876 16.5802 82.2464 16.5056 82.6576 16.5056C83.2112 16.5056 83.7049 16.6437 84.1386 16.9199C84.5724 17.1887 84.8789 17.5658 85.0586 18.0511L84.0826 18.5103C83.9629 18.2192 83.7721 17.9877 83.5102 17.816C83.2561 17.6442 82.968 17.5583 82.6464 17.5583C82.3697 17.5583 82.1491 17.6255 81.9845 17.7599C81.8199 17.8869 81.7377 18.0549 81.7377 18.2639C81.7377 18.4058 81.775 18.5253 81.8498 18.6224C81.9248 18.7119 82.0219 18.7866 82.1415 18.8463C82.2612 18.8986 82.3848 18.9434 82.5119 18.9808L83.4991 19.2719C84.0003 19.4138 84.3855 19.6378 84.6547 19.944C84.9238 20.2426 85.0586 20.601 85.0586 21.0191C85.0586 21.3775 84.9612 21.6949 84.7668 21.9711C84.5799 22.2399 84.318 22.4528 83.9816 22.6096C83.645 22.7589 83.2522 22.8335 82.8034 22.8335Z" fill="#A3A3A3"/>
<path fill-rule="evenodd" clip-rule="evenodd" d="M20.2811 2.06557H5.38366C3.66957 2.06557 2.28002 3.45276 2.28002 5.16394V20.0361C2.28002 21.7472 3.66957 23.1344 5.38366 23.1344H20.2811C21.9951 23.1344 23.3847 21.7472 23.3847 20.0361V5.16394C23.3847 3.45276 21.9951 2.06557 20.2811 2.06557ZM5.38366 0C2.52684 0 0.210938 2.31197 0.210938 5.16394V20.0361C0.210938 22.888 2.52684 25.2 5.38366 25.2H20.2811C23.1379 25.2 25.4538 22.888 25.4538 20.0361V5.16394C25.4538 2.31197 23.1379 0 20.2811 0H5.38366Z" fill="#A3A3A3"/>
<path fill-rule="evenodd" clip-rule="evenodd" d="M15.4643 7.92807C15.4158 7.88479 15.3646 7.84333 15.3107 7.80371C14.8435 7.46032 14.2094 7.28862 13.4086 7.28862C12.8644 7.28862 12.4049 7.3655 12.0301 7.51927C11.6553 7.6679 11.3678 7.87546 11.1676 8.14198C10.9525 8.43577 10.5863 8.67384 10.2695 8.49376C10.0209 8.35235 9.79128 8.17789 9.58735 7.97432C9.20701 7.59465 8.92815 7.12581 8.7763 6.61071C8.70941 6.38379 8.76861 6.13581 8.94756 5.98078C9.34783 5.63404 9.81575 5.34221 10.3513 5.10528C11.2549 4.70549 12.2816 4.50562 13.4316 4.50562C14.6022 4.50562 15.6239 4.70549 16.4966 5.10528C17.3745 5.50504 18.0574 6.06113 18.5451 6.77354C18.7235 7.03414 18.8703 7.30984 18.9855 7.60061C19.3272 8.46291 18.5386 9.24903 17.6097 9.24903C16.8846 9.24903 16.3042 8.70764 15.7558 8.19618C15.6579 8.10481 15.5608 8.01428 15.4643 7.92807ZM10.69 9.6336C10.8277 9.57985 10.9751 9.6612 11.0521 9.7872C11.1855 9.99733 11.3678 10.1793 11.5988 10.333C11.8299 10.4817 12.0968 10.6124 12.3997 10.7251C12.7026 10.8328 13.0261 10.925 13.37 11.0019L14.787 11.3401C15.475 11.4939 16.1065 11.6989 16.6815 11.9552C17.2565 12.2114 17.7545 12.5266 18.1754 12.9008C18.5964 13.2749 18.9224 13.7157 19.1535 14.2231C19.3896 14.7305 19.5103 15.3122 19.5154 15.9682C19.5103 16.9318 19.2639 17.7672 18.7761 18.4745C18.2935 19.1767 17.5953 19.7225 16.6815 20.112C15.7727 20.4964 14.6766 20.6886 13.3931 20.6886C12.1199 20.6886 11.011 20.4939 10.0663 20.1043C9.12681 19.7148 8.39266 19.1382 7.86387 18.3746C7.61981 18.0163 7.42984 17.6185 7.29396 17.1812C7.01986 16.2991 7.80108 15.5224 8.72618 15.5224H8.84613C9.64572 15.5224 10.2397 16.2072 10.7209 16.8447C10.993 17.1932 11.355 17.4571 11.8068 17.6365C12.2637 17.8108 12.7796 17.8979 13.3546 17.8979C13.9194 17.8979 14.4097 17.8159 14.8255 17.6519C15.2465 17.4879 15.5725 17.2598 15.8035 16.9677C16.0346 16.6755 16.1501 16.3398 16.1501 15.9606C16.1501 15.6069 16.0448 15.3097 15.8343 15.0688C15.629 14.8279 15.3261 14.6229 14.9256 14.4537C14.5303 14.2846 14.0452 14.1309 13.4702 13.9925L11.7528 13.5619C10.6263 13.2884 9.70065 12.8843 8.97579 12.3495C8.7798 12.2049 8.70749 11.9504 8.7763 11.7171C8.92812 11.202 9.20693 10.7332 9.5872 10.3535C9.90179 10.0394 10.2775 9.79464 10.69 9.6336ZM8.64948 7.46177L8.49856 6.94987C8.49205 6.92765 8.47851 6.90812 8.45996 6.89424C8.4414 6.88033 8.41885 6.87282 8.39564 6.87282C8.37246 6.87282 8.34989 6.88033 8.33132 6.89424C8.31278 6.90812 8.29924 6.92765 8.29275 6.94987L8.14203 7.46177C8.04076 7.80514 7.85484 8.11765 7.60129 8.37074C7.34775 8.6238 7.03464 8.80936 6.69068 8.91041L6.17789 9.06107C6.07519 9.09146 6.07519 9.23655 6.17789 9.26653L6.69068 9.41717C7.03462 9.51823 7.34765 9.70382 7.60117 9.95688C7.85469 10.21 8.04057 10.5225 8.14183 10.8658L8.29275 11.3779C8.32297 11.4802 8.46831 11.4802 8.49856 11.3779L8.64948 10.866C8.75069 10.5226 8.93657 10.2101 9.19006 9.95698C9.44359 9.70387 9.75665 9.51826 10.1006 9.41717L10.6136 9.26653C10.7161 9.23633 10.7161 9.09124 10.6136 9.06129L10.1008 8.91062C9.75684 8.80956 9.44373 8.62397 9.19016 8.37086C8.93662 8.11774 8.75072 7.80517 8.64948 7.46177ZM6.82017 10.4853L6.86544 10.6389C6.89583 10.7419 6.95158 10.8357 7.02765 10.9116C7.10372 10.9875 7.19765 11.0432 7.30086 11.0735L7.45469 11.1187C7.48544 11.1277 7.48544 11.1712 7.45469 11.1803L7.30078 11.2255C7.1976 11.2558 7.1037 11.3115 7.02763 11.3874C6.95158 11.4634 6.89581 11.5571 6.86544 11.6601L6.82017 11.8137C6.8111 11.8444 6.7675 11.8444 6.75843 11.8137L6.71316 11.6601C6.68277 11.5571 6.62702 11.4633 6.55095 11.3874C6.47491 11.3115 6.381 11.2558 6.27782 11.2255L6.12398 11.1803C6.09316 11.1713 6.09316 11.1278 6.12398 11.1187L6.27782 11.0735C6.381 11.0432 6.47493 10.9875 6.551 10.9116C6.62707 10.8356 6.68284 10.7419 6.71321 10.6389L6.75843 10.4853C6.76039 10.4786 6.76445 10.4728 6.77 10.4686C6.77559 10.4644 6.78233 10.4622 6.7893 10.4622C6.79627 10.4622 6.80304 10.4644 6.8086 10.4686C6.81415 10.4728 6.81823 10.4786 6.82017 10.4853ZM6.52529 6.30754L6.45486 6.06865C6.45182 6.05827 6.44551 6.04916 6.43685 6.04267C6.42818 6.0362 6.41767 6.03269 6.40685 6.03269C6.39602 6.03269 6.38549 6.0362 6.37682 6.04267C6.36816 6.04916 6.36185 6.05827 6.35881 6.06865L6.2885 6.30754C6.24124 6.46777 6.15447 6.61362 6.03614 6.73172C5.91782 6.84982 5.7717 6.9364 5.61119 6.98355L5.37189 7.05387C5.32395 7.06804 5.32395 7.13577 5.37189 7.14975L5.61119 7.22004C5.7717 7.26722 5.91777 7.35382 6.03609 7.47192C6.15439 7.59002 6.24114 7.73584 6.28838 7.89608L6.35881 8.13507C6.37292 8.1828 6.44075 8.1828 6.45486 8.13507L6.52529 7.89618C6.57253 7.73594 6.65925 7.59007 6.77758 7.47197C6.89588 7.35385 7.04197 7.26722 7.20248 7.22004L7.4419 7.14975C7.48972 7.13567 7.48972 7.06795 7.4419 7.05397L7.20258 6.98365C7.04204 6.93649 6.89595 6.84989 6.77763 6.73177C6.6593 6.61364 6.57253 6.46777 6.52529 6.30754Z" fill="#A3A3A3"/>
</g>
<defs>
<clipPath id="clip0_14285_23095">
<rect width="85.4" height="25.2" fill="white"/>
</clipPath>
</defs>
</svg>
