<svg width="134" height="22" viewBox="0 0 134 22" fill="none" xmlns="http://www.w3.org/2000/svg">
<path d="M22 22H0V0H22V22ZM6 14.6006V17.8008H10.7998V14.6006H6ZM6 14.5996L7.59961 13H14V9.7998H6V14.5996ZM6 9.7998L7.59961 8.2002H15.5996V5H6V9.7998Z" fill="#A3A3A3"/>
<path fill-rule="evenodd" clip-rule="evenodd" d="M29 15.2962L29.9264 13.9348C30.3515 14.4254 30.917 14.8383 31.6228 15.1735C32.3286 15.5087 33.0705 15.6763 33.8486 15.6763C34.7389 15.6763 35.4327 15.4842 35.9299 15.0999C36.4353 14.7156 36.688 14.2128 36.688 13.5913C36.688 13.1989 36.5516 12.8677 36.2789 12.598C36.0062 12.3281 35.6532 12.1196 35.2201 11.9724C34.787 11.8253 34.3097 11.6903 33.7884 11.5678C33.2671 11.4451 32.7417 11.302 32.2124 11.1385C31.691 10.9749 31.2138 10.7746 30.7807 10.5375C30.3475 10.3004 29.9946 9.96513 29.7218 9.53183C29.4491 9.09027 29.3128 8.56702 29.3128 7.96194C29.3128 6.96437 29.7058 6.13453 30.4919 5.47225C31.2779 4.80178 32.3567 4.46655 33.7283 4.46655C35.5409 4.46655 37.0088 5.05525 38.1316 6.23265L37.2775 7.5327C36.9085 7.07483 36.4112 6.70688 35.7856 6.42888C35.168 6.14271 34.4822 5.99962 33.7283 5.99962C32.9342 5.99962 32.2965 6.18359 31.8153 6.55152C31.3341 6.91131 31.0934 7.36505 31.0934 7.91287C31.0934 8.26448 31.2298 8.56289 31.5025 8.80824C31.7752 9.04533 32.1241 9.23335 32.5492 9.37237C32.9823 9.5032 33.4596 9.6299 33.9809 9.75261C34.5103 9.86706 35.0356 10.0101 35.557 10.1819C36.0864 10.3536 36.5636 10.5661 36.9887 10.8196C37.4218 11.0648 37.7748 11.4206 38.0474 11.8866C38.3201 12.3526 38.4565 12.9046 38.4565 13.5423C38.4565 14.6052 38.0474 15.4842 37.2293 16.1792C36.4192 16.866 35.2763 17.2094 33.8005 17.2094C31.8033 17.2094 30.2032 16.5717 29 15.2962ZM40.4787 13.3338V4.77317H42.3195V12.7574C42.3195 13.7712 42.5481 14.4867 43.0052 14.9036C43.4625 15.3125 44.1282 15.5169 45.0024 15.5169C45.6923 15.5169 46.358 15.3411 46.9996 14.9895C47.6412 14.6379 48.1426 14.2046 48.5035 13.6895V4.77317H50.3563V16.9028H48.5035V15.198C48.0062 15.7704 47.3846 16.2487 46.6387 16.633C45.8927 17.0172 45.1027 17.2094 44.2685 17.2094C41.742 17.2094 40.4787 15.9175 40.4787 13.3338ZM53.0642 16.9028H54.905V8.31761C55.1778 7.81886 55.647 7.37324 56.3127 6.98082C56.9784 6.58014 57.596 6.37982 58.1655 6.37982C58.3499 6.37982 58.5866 6.39617 58.8753 6.42888V4.49109C58.1054 4.49109 57.3795 4.69549 56.6977 5.10431C56.0159 5.50495 55.4184 6.0405 54.905 6.71097V4.77317H53.0642V16.9028ZM59.5139 10.8196C59.5139 9.65853 59.7626 8.59565 60.2599 7.63084C60.7652 6.65782 61.467 5.88924 62.3654 5.32507C63.2637 4.75273 64.2703 4.46655 65.3852 4.46655C66.5562 4.46655 67.5788 4.75682 68.4531 5.33734C69.3273 5.91786 69.9853 6.6987 70.4263 7.67984C70.875 8.65284 71.0997 9.75254 71.0997 10.979V11.4573H61.4871C61.5592 12.6511 61.9763 13.6486 62.7383 14.4499C63.5083 15.2512 64.5109 15.6518 65.7461 15.6518C66.4439 15.6518 67.1137 15.5169 67.7553 15.247C68.405 14.9773 68.9704 14.593 69.452 14.0942L70.3298 15.3207C69.0707 16.5798 67.4947 17.2094 65.6017 17.2094C63.8211 17.2094 62.3614 16.6166 61.2224 15.4311C60.0834 14.2455 59.5139 12.7084 59.5139 10.8196ZM61.463 10.047H69.2713C69.2636 9.5809 69.1789 9.1189 69.0186 8.66103C68.8662 8.20316 68.6376 7.77385 68.3329 7.37324C68.028 6.97263 67.6189 6.64964 67.1056 6.40436C66.5923 6.15089 66.0107 6.02415 65.3611 6.02415C64.7515 6.02415 64.1981 6.14679 63.7008 6.39209C63.2035 6.63737 62.7984 6.96038 62.4856 7.36099C62.1808 7.75348 61.9403 8.18272 61.7638 8.64871C61.5873 9.10665 61.4871 9.57271 61.463 10.047Z" fill="#A3A3A3"/>
<path d="M75.5538 17.3115H72.9785V4.99634H81.5388V7.3043H75.5538V9.88919H81.4114V12.1972H75.5538V17.3115Z" fill="#A3A3A3"/>
<path d="M89.0892 17.5333C85.4261 17.5333 82.7598 14.8745 82.7598 11.1634C82.7598 7.45222 85.4261 4.79346 89.0892 4.79346C92.7341 4.79346 95.4004 7.45222 95.4004 11.1634C95.4004 14.8745 92.7341 17.5333 89.0892 17.5333ZM89.0892 15.2069C91.3201 15.2069 92.7523 13.4529 92.7523 11.1634C92.7523 8.85544 91.3201 7.11986 89.0892 7.11986C86.8401 7.11986 85.4079 8.85544 85.4079 11.1634C85.4079 13.4529 86.8401 15.2069 89.0892 15.2069Z" fill="#A3A3A3"/>
<path d="M107.018 17.3115H104.044L101.668 12.9357H99.7823V17.3115H97.207V4.99634H102.865C105.386 4.99634 106.945 6.67653 106.945 8.96603C106.945 11.1262 105.585 12.3079 104.28 12.6218L107.018 17.3115ZM102.503 10.6277C103.518 10.6277 104.298 9.99993 104.298 8.94755C104.298 7.93206 103.518 7.3043 102.503 7.3043H99.7823V10.6277H102.503Z" fill="#A3A3A3"/>
<path d="M121.973 17.3115H119.38V8.43053L115.971 17.3115H114.846L111.437 8.43053V17.3115H108.861V4.99634H112.47L115.408 12.6956L118.346 4.99634H121.973V17.3115Z" fill="#A3A3A3"/>
<path d="M128.692 17.5332C126.352 17.5332 124.684 16.7392 123.541 15.576L124.956 13.5266C125.808 14.4313 127.132 15.2067 128.801 15.2067C130.234 15.2067 130.904 14.5605 130.904 13.8405C130.904 11.6987 123.94 13.1942 123.94 8.55988C123.94 6.51042 125.682 4.81177 128.529 4.81177C130.451 4.81177 132.047 5.4026 133.244 6.52887L131.812 8.48603C130.832 7.5628 129.526 7.13818 128.293 7.13818C127.205 7.13818 126.588 7.61824 126.588 8.35674C126.588 10.2955 133.534 8.9845 133.534 13.582C133.534 15.8345 131.938 17.5332 128.692 17.5332Z" fill="#A3A3A3"/>
</svg>
