<svg width="122" height="23" viewBox="0 0 122 23" fill="none" xmlns="http://www.w3.org/2000/svg">
<path fill-rule="evenodd" clip-rule="evenodd" d="M11.2 22.4002C17.3855 22.4002 22.3999 17.3858 22.3999 11.2002C22.3999 5.01466 17.3855 0.000244141 11.2 0.000244141C5.0144 0.000244141 0 5.01466 0 11.2002C0 17.3858 5.0144 22.4002 11.2 22.4002ZM11.2482 5.60024C10.3489 5.60024 9.10436 6.11454 8.46845 6.74896L6.74134 8.47204H15.35L18.2285 5.60024H11.2482ZM13.917 15.6515C13.2811 16.2859 12.0365 16.8002 11.1372 16.8002H4.15694L7.03546 13.9284H15.6441L13.917 15.6515ZM16.7148 9.90794H5.3052L4.76625 10.4464C3.4901 11.5951 3.86859 12.4926 5.65578 12.4926H17.0963L17.6354 11.9541C18.8992 10.8121 18.502 9.90794 16.7148 9.90794Z" fill="#A3A3A3"/>
<path d="M32.9141 4.66772C34.797 4.66781 36.3218 5.27109 37.4883 6.47827L36.6006 7.81128C36.2173 7.34189 35.7006 6.96445 35.0508 6.67944C34.4094 6.38612 33.6971 6.24004 32.9141 6.23999C32.0893 6.23999 31.4267 6.42828 30.9268 6.80542C30.4268 7.17432 30.1768 7.64017 30.1768 8.2019C30.1769 8.56222 30.3184 8.86846 30.6016 9.11987C30.8848 9.36285 31.2471 9.55552 31.6885 9.698C32.1383 9.83211 32.6343 9.96191 33.1758 10.0876C33.7257 10.205 34.2719 10.352 34.8135 10.5281C35.3634 10.7041 35.8592 10.9225 36.3008 11.1824C36.7506 11.4339 37.1171 11.7983 37.4004 12.2761C37.6837 12.754 37.8252 13.3204 37.8252 13.9744C37.8251 15.064 37.4005 15.965 36.5508 16.6775C35.7092 17.3818 34.5215 17.7341 32.9883 17.7341C30.9137 17.7341 29.2517 17.08 28.002 15.7722L28.9639 14.3767C29.4055 14.8797 29.9934 15.3025 30.7266 15.6462C31.4598 15.99 32.2308 16.1619 33.0391 16.1619C33.9638 16.1618 34.6846 15.965 35.2012 15.571C35.726 15.177 35.9883 14.6613 35.9883 14.0242C35.9883 13.6218 35.8467 13.2823 35.5635 13.0056C35.2802 12.729 34.9137 12.5149 34.4639 12.364C34.014 12.2131 33.518 12.0747 32.9766 11.949C32.435 11.8232 31.8888 11.6762 31.3389 11.5085C30.7973 11.3409 30.3015 11.1355 29.8516 10.8923C29.4017 10.6492 29.0352 10.3054 28.752 9.86108C28.4687 9.40837 28.3262 8.87208 28.3262 8.25171C28.3262 7.22886 28.7352 6.37808 29.5518 5.69897C30.3683 5.01151 31.4892 4.66772 32.9141 4.66772ZM41.8389 13.1687C41.8389 14.2082 42.076 14.9423 42.5508 15.3699C43.0257 15.7891 43.7177 15.9988 44.626 15.9988C45.3425 15.9988 46.0346 15.8183 46.7012 15.4578C47.3675 15.0973 47.8878 14.6528 48.2627 14.1248V4.98218H50.1875V17.4197H48.2627V15.6716C47.7462 16.2584 47.1009 16.7493 46.3262 17.1433C45.5513 17.5374 44.7299 17.7341 43.8633 17.7341C41.2388 17.7341 39.9269 16.4096 39.9268 13.7605V4.98218H41.8389V13.1687ZM65.8008 4.66772C67.0173 4.66774 68.0801 4.96504 68.9883 5.5603C69.8964 6.15556 70.5798 6.95663 71.0381 7.96265C71.5046 8.96028 71.7373 10.088 71.7373 11.3455V11.8357H61.751C61.826 13.0598 62.2592 14.0834 63.0508 14.905C63.8507 15.7266 64.8927 16.1375 66.1758 16.1375C66.9005 16.1374 67.5962 15.999 68.2627 15.7224C68.9376 15.4457 69.5254 15.0512 70.0254 14.5398L70.9375 15.7976C69.6293 17.0887 67.9918 17.7341 66.0254 17.7341C64.1759 17.7341 62.6597 17.1263 61.4766 15.9109C60.2934 14.6953 59.7012 13.1189 59.7012 11.1824C59.7012 9.99183 59.9599 8.90119 60.4766 7.91187C61.0015 6.91441 61.7301 6.12603 62.6631 5.54761C63.5963 4.96072 64.6426 4.66772 65.8008 4.66772ZM81.0508 4.66772C83.8013 4.66777 85.4026 6.16394 86.2881 7.75464L83.9893 8.89038C83.4617 7.86792 82.3317 7.05352 81.0508 7.05347C78.7524 7.05347 77.0947 8.81484 77.0947 11.2009C77.0948 13.587 78.7524 15.3484 81.0508 15.3484C82.3317 15.3483 83.4617 14.5339 83.9893 13.5115L86.2881 14.6287C85.4026 16.2004 83.8012 17.7341 81.0508 17.7341C77.2641 17.7341 74.3438 15.083 74.3438 11.2009C74.3438 7.29986 77.2641 4.66772 81.0508 4.66772ZM99.4697 17.5066H96.4365L95.6455 15.3669H90.2568L89.4658 17.5066H86.4326L91.2744 4.87573H94.6279L99.4697 17.5066ZM106.508 4.87573C109.126 4.87573 110.747 6.59897 110.747 8.94702C110.747 11.1626 109.334 12.3751 107.978 12.697L110.822 17.5066H107.732L105.265 13.0193H103.306V17.5066H100.63V4.87573H106.508ZM121.802 7.24292H118.147V17.5066H115.453V7.24292H111.779V4.87573H121.802V7.24292ZM59.0381 6.67944C58.7383 6.64592 58.4924 6.62966 58.3008 6.62964C57.7092 6.62964 57.0675 6.83508 56.376 7.24585C55.6845 7.64822 55.1964 8.10464 54.9131 8.61597V17.4197H53.001V4.98218H54.9131V6.96851C55.4463 6.28109 56.0672 5.73183 56.7754 5.32104C57.4837 4.90184 58.2382 4.69312 59.0381 4.69312V6.67944ZM90.9922 12.9998H94.9102L92.9512 7.56519L90.9922 12.9998ZM103.306 10.6521H106.131C107.186 10.6521 107.996 10.0078 107.996 8.92847C107.996 7.88692 107.186 7.24292 106.131 7.24292H103.306V10.6521ZM65.7754 6.2644C65.1423 6.26445 64.5673 6.39085 64.0508 6.64233C63.5343 6.89384 63.113 7.22473 62.7881 7.6355C62.4716 8.03779 62.2223 8.47812 62.0391 8.95581C61.8558 9.42522 61.7516 9.90323 61.7266 10.3894H69.8379C69.8295 9.91161 69.7418 9.43792 69.5752 8.96851C69.4169 8.49913 69.1798 8.05891 68.8633 7.64819C68.5467 7.23739 68.1211 6.90655 67.5879 6.65503C67.0546 6.39512 66.4503 6.2644 65.7754 6.2644Z" fill="#A3A3A3"/>
</svg>
