<svg width="170" height="23" viewBox="0 0 170 23" fill="none" xmlns="http://www.w3.org/2000/svg">
<g clip-path="url(#clip0_14285_23159)">
<path d="M0 4.41079C0 2.83824 1.27525 1.56299 2.8478 1.56299H19.9346C21.5077 1.56299 22.7824 2.83824 22.7824 4.41079V15.802C22.7824 17.3751 21.5077 18.6498 19.9346 18.6498H5.76451L1.82886 21.6445C1.07875 22.2153 0 21.6804 0 20.7378V11.704V11.7006V4.41079ZM6.71286 8.96499C6.43661 8.39999 5.75425 8.16531 5.18926 8.44156C4.62369 8.71781 4.3896 9.40012 4.66584 9.96513C5.88016 12.4501 8.43407 14.1656 11.3912 14.1656C14.3483 14.1656 16.9023 12.4501 18.1166 9.96513C18.3928 9.39955 18.1587 8.71781 17.5932 8.44156C17.0282 8.16531 16.3458 8.39999 16.0696 8.96499C15.2226 10.6976 13.4451 11.8874 11.3912 11.8874C9.33736 11.8874 7.55979 10.6982 6.71286 8.96499Z" fill="#A3A3A3"/>
<path d="M28.4805 15.2814L29.5097 13.8562C30.3543 14.8327 31.9642 15.6772 33.706 15.6772C35.659 15.6772 36.7147 14.8063 36.7147 13.5659C36.7147 12.1671 35.1576 11.7185 33.4421 11.2962C31.278 10.7947 28.8236 10.2141 28.8236 7.57497C28.8236 5.59554 30.539 3.90649 33.5741 3.90649C35.7382 3.90649 37.2689 4.72464 38.2982 5.75391L37.3745 7.1263C36.6091 6.20258 35.2104 5.51641 33.5741 5.51641C31.8322 5.51641 30.7502 6.30812 30.7502 7.44297C30.7502 8.68341 32.2017 9.07926 33.8644 9.47517C36.0813 9.97662 38.6413 10.61 38.6413 13.4339C38.6413 15.5717 36.9258 17.2871 33.6268 17.2871C31.5419 17.2871 29.7736 16.6537 28.4805 15.2814ZM49.273 16.9704V15.1758C48.2965 16.2843 46.6339 17.2871 44.7336 17.2871C42.0681 17.2871 40.6693 15.9939 40.6693 13.2228V4.22319H42.6487V12.6158C42.6487 14.8591 43.7836 15.5189 45.4991 15.5189C47.0562 15.5189 48.5341 14.6215 49.273 13.5923V4.22319H51.2525V16.9704H49.273ZM54.0176 16.9704V4.22319H55.9971V6.28176C57.0265 4.93577 58.5043 3.95927 60.2463 3.95927V5.99145C60.0088 5.93868 59.7712 5.91227 59.4545 5.91227C58.2407 5.91227 56.5779 6.91516 55.9971 7.94442V16.9704H54.0176ZM60.8027 10.5836C60.8027 6.88875 63.4417 3.90649 67.084 3.90649C70.9368 3.90649 73.2065 6.91516 73.2065 10.742V11.2434H62.8874C63.0458 13.6451 64.7352 15.6509 67.4794 15.6509C68.9313 15.6509 70.4092 15.0702 71.4119 14.0409L72.3621 15.3341C71.0952 16.6009 69.3798 17.2871 67.295 17.2871C63.5209 17.2871 60.8027 14.5688 60.8027 10.5836ZM67.0575 5.54277C64.3393 5.54277 62.9932 7.83888 62.8874 9.79184H71.2536C71.2275 7.89165 69.9606 5.54277 67.0575 5.54277Z" fill="#A3A3A3"/>
<path d="M78.6289 17.1907H75.9883V4.7878H84.7654V7.11218H78.6289V9.73407H84.6352V12.0585H78.6289V17.1907ZM95.3882 17.1907H86.6116V4.7878H95.3882V7.11218H89.2522V9.73407H95.2585V12.0585H89.2522V14.8663H95.3882V17.1907ZM106.229 17.1907H97.4527V4.7878H106.229V7.11218H100.093V9.73407H106.1V12.0585H100.093V14.8663H106.229V17.1907ZM113.184 17.1907H108.294V4.7878H113.184C115.13 4.7878 116.711 5.35805 117.926 6.49852C119.153 7.63904 119.767 9.13906 119.767 10.9986C119.767 12.8581 119.159 14.3581 117.945 15.4986C116.73 16.6267 115.143 17.1907 113.184 17.1907ZM113.184 14.8663C114.374 14.8663 115.316 14.4944 116.011 13.7506C116.717 13.0068 117.07 12.0895 117.07 10.9986C117.07 9.85805 116.73 8.92829 116.048 8.20931C115.366 7.47787 114.412 7.11218 113.184 7.11218H110.934V14.8663H113.184ZM128.372 17.1907H121.641V4.7878H128.168C129.296 4.7878 130.17 5.09772 130.79 5.71754C131.422 6.325 131.738 7.06878 131.738 7.94895C131.738 8.70518 131.534 9.33738 131.124 9.84565C130.715 10.3539 130.207 10.67 129.599 10.794C130.269 10.8932 130.833 11.2341 131.292 11.8167C131.75 12.3994 131.979 13.075 131.979 13.8436C131.979 14.8105 131.664 15.6102 131.031 16.2424C130.399 16.8746 129.513 17.1907 128.372 17.1907ZM127.591 9.75267C128.038 9.75267 128.391 9.62874 128.651 9.38077C128.912 9.13286 129.041 8.81051 129.041 8.41382C129.041 8.01714 128.905 7.69484 128.632 7.44687C128.372 7.18656 128.025 7.05638 127.591 7.05638H124.281V9.75267H127.591ZM127.684 14.9035C128.18 14.9035 128.57 14.7795 128.855 14.5316C129.141 14.2713 129.284 13.918 129.284 13.4717C129.284 13.0626 129.141 12.7217 128.855 12.4489C128.57 12.1638 128.18 12.0213 127.684 12.0213H124.281V14.9035H127.684ZM145.537 17.1907H142.525L141.762 15.0895H136.444L135.663 17.1907H132.651L137.448 4.7878H140.758L145.537 17.1907ZM141.037 12.7651L139.103 7.42828L137.169 12.7651H141.037ZM152.053 17.4139C150.169 17.4139 148.594 16.8188 147.33 15.6287C146.078 14.4262 145.452 12.8828 145.452 10.9986C145.452 9.11427 146.078 7.57705 147.33 6.38699C148.594 5.18449 150.169 4.58325 152.053 4.58325C154.371 4.58325 156.101 5.59356 157.241 7.61425L154.972 8.72998C154.7 8.20931 154.297 7.78162 153.764 7.44687C153.243 7.09978 152.673 6.92626 152.053 6.92626C150.925 6.92626 149.995 7.31055 149.264 8.07913C148.533 8.84771 148.167 9.82086 148.167 10.9986C148.167 12.1762 148.533 13.1494 149.264 13.918C149.995 14.6866 150.925 15.0709 152.053 15.0709C152.673 15.0709 153.243 14.9035 153.764 14.5688C154.297 14.2341 154.7 13.8002 154.972 13.2672L157.241 14.3643C156.064 16.3973 154.334 17.4139 152.053 17.4139ZM169.431 17.1907H166.176L162.42 12.2258L161.453 13.3787V17.1907H158.813V4.7878H161.453V10.3291L165.842 4.7878H169.096L164.168 10.608L169.431 17.1907Z" fill="#A3A3A3"/>
</g>
<defs>
<clipPath id="clip0_14285_23159">
<rect width="169.823" height="22.4" fill="white"/>
</clipPath>
</defs>
</svg>
