<svg width="131" height="26" viewBox="0 0 131 26" fill="none" xmlns="http://www.w3.org/2000/svg">
<path d="M21.5549 5.21419L13.0464 0.383226C12.101 -0.127742 10.9665 -0.127742 10.0212 0.383226L1.51263 5.21419C0.567235 5.72516 0 6.7471 0 7.76903V17.431C0 18.4994 0.567235 19.4748 1.51263 19.9858L10.0212 24.8168C10.9665 25.3277 12.101 25.3277 13.0464 24.8168L21.5549 19.9858C22.5003 19.4284 23.0676 18.4529 23.0676 17.431V7.76903C23.0676 6.70065 22.4531 5.72516 21.5549 5.21419ZM11.6283 22.3548L3.16706 17.2452V7.81548L11.4865 3.07742L20.0896 7.81548L17.1589 9.8129L11.5338 6.65419L6.38139 9.76645V15.5265L11.7701 18.7781L17.0643 15.7587L20.3732 17.5703L11.6283 22.3548Z" fill="#A3A3A3"/>
<path d="M46.8949 7.93994L43.4748 17.9058H42.3348L39.3898 9.43016L36.4448 17.9058H35.3048L31.8848 7.93994H33.0248L35.9698 16.5087L39.0098 7.93994H39.9598L42.9048 16.5087L45.8499 7.93994H46.8949Z" fill="#A3A3A3"/>
<path d="M55.8264 8.87133C56.5864 9.5233 56.9664 10.2684 56.9664 11.3861C56.9664 12.4106 56.5864 13.2488 55.8264 13.9008C55.0664 14.4596 54.1164 14.8322 52.7864 14.8322H50.0313V17.9989H48.9863V7.93994H52.7864C54.1164 7.93994 55.1614 8.21936 55.8264 8.87133ZM55.0664 13.1557C55.6364 12.69 55.8264 12.1312 55.8264 11.2929C55.8264 10.4547 55.5414 9.89585 55.0664 9.43016C54.4964 8.96446 53.7364 8.77819 52.7864 8.77819H50.1263V13.7145H52.7864C53.8314 13.8077 54.5914 13.6214 55.0664 13.1557Z" fill="#A3A3A3"/>
<path d="M61.6203 17.3467C60.7652 16.881 60.1002 16.3222 59.6252 15.4839C59.1502 14.7388 58.8652 13.8074 58.8652 12.876C58.8652 11.8515 59.1502 11.0133 59.6252 10.2682C60.1002 9.52305 60.7652 8.87108 61.6203 8.40539C62.4753 7.9397 63.4253 7.75342 64.4703 7.75342C65.3253 7.75342 66.1803 7.93969 66.8453 8.21911C67.5103 8.49853 68.1753 8.96422 68.6503 9.52305L67.1303 10.9201C66.4653 10.175 65.6103 9.80246 64.5653 9.80246C63.9003 9.80246 63.4253 9.8956 62.8553 10.175C62.3803 10.4544 62.0003 10.827 61.7153 11.2927C61.4303 11.7584 61.3353 12.3172 61.3353 12.9692C61.3353 13.6211 61.4303 14.18 61.7153 14.6457C62.0003 15.1114 62.3803 15.4839 62.8553 15.7633C63.3303 16.0427 63.9003 16.1359 64.5653 16.1359C65.6103 16.1359 66.4653 15.7633 67.1303 14.9251L68.6503 16.3222C68.1753 16.881 67.6053 17.3467 66.8453 17.6261C66.0853 17.9055 65.3253 18.0918 64.4703 18.0918C63.4253 17.9986 62.4753 17.8124 61.6203 17.3467Z" fill="#A3A3A3"/>
<path d="M76.8214 17.906L74.8264 15.1118H74.7314H72.7363V17.906H70.3613V7.94019H74.7314C75.5864 7.94019 76.4414 8.12646 77.1064 8.40588C77.7714 8.68529 78.2464 9.15099 78.6264 9.61668C79.0064 10.1755 79.1964 10.8275 79.1964 11.5726C79.1964 12.3177 79.0064 12.9697 78.6264 13.5285C78.2464 14.0873 77.7714 14.4599 77.1064 14.7393L79.3864 17.906H76.8214ZM76.2514 10.2686C75.8714 9.98923 75.3014 9.80296 74.6364 9.80296H72.7363V13.2491H74.6364C75.3014 13.2491 75.8714 13.0628 76.2514 12.7834C76.6314 12.504 76.8214 12.0383 76.8214 11.4794C76.8214 11.0138 76.6314 10.5481 76.2514 10.2686Z" fill="#A3A3A3"/>
<path d="M87.8394 15.7638H83.0894L82.2344 17.906H79.8594L84.4194 7.94019H86.6994L91.2595 17.906H88.7894L87.8394 15.7638ZM87.0794 13.9942L85.4644 10.1755L83.8494 13.9942H87.0794Z" fill="#A3A3A3"/>
<path d="M94.7754 9.80296V12.4108H99.4304V14.2736H94.7754V17.906H92.4004V7.94019H100.095V9.80296H94.7754Z" fill="#A3A3A3"/>
<path d="M103.99 9.80296H100.76V7.94019H109.595V9.80296H106.365V17.906H103.99V9.80296Z" fill="#A3A3A3"/>
<path d="M118.907 16.0432V17.906H111.021V7.94019H118.717V9.80296H113.397V11.9451H118.147V13.7148H113.397V16.0432H118.907Z" fill="#A3A3A3"/>
<path d="M127.36 17.906L125.365 15.1118H125.27H123.275V17.906H120.9V7.94019H125.27C126.125 7.94019 126.98 8.12646 127.645 8.40588C128.31 8.68529 128.785 9.15099 129.165 9.61668C129.545 10.1755 129.735 10.8275 129.735 11.5726C129.735 12.3177 129.545 12.9697 129.165 13.5285C128.785 14.0873 128.31 14.4599 127.645 14.7393L129.925 17.906H127.36ZM126.79 10.2686C126.41 9.98923 125.84 9.80296 125.175 9.80296H123.275V13.2491H125.175C125.84 13.2491 126.41 13.0628 126.79 12.7834C127.17 12.504 127.36 12.0383 127.36 11.4794C127.36 11.0138 127.17 10.5481 126.79 10.2686Z" fill="#A3A3A3"/>
</svg>
