<svg width="70" height="23" viewBox="0 0 70 23" fill="none" xmlns="http://www.w3.org/2000/svg">
<path d="M6.00196 5.3336H1.09823V1.00854H13.1788L6.84479 15.5427H12.2849V19.742H0L6.00196 5.35874V5.3336Z" fill="#A3A3A3"/>
<path d="M19.1796 0.958984V19.7428H14.5312V0.958984H19.1796Z" fill="#A3A3A3"/>
<path d="M21.123 0.782715H21.736C22.0425 0.782715 22.3745 0.782715 22.7065 0.782715H23.6515C23.958 0.782715 24.1623 0.782715 24.29 0.782715C25.0307 0.782715 25.7714 0.807863 26.512 0.8833C27.2527 0.958737 27.9678 1.05932 28.6063 1.23534C29.2704 1.41136 29.9089 1.66281 30.4708 1.96456C31.0327 2.26631 31.5435 2.66864 31.9521 3.14641C32.3863 3.62417 32.6928 4.20253 32.9482 4.9066C33.178 5.58554 33.3057 6.39019 33.3057 7.32058C33.3057 8.50243 33.1014 9.45796 32.7183 10.2626C32.3097 11.0421 31.7989 11.6708 31.1093 12.1737C30.4452 12.6766 29.6535 13.0538 28.7596 13.3052C27.8912 13.5567 26.9462 13.7327 25.9502 13.8584V19.7928H21.123V0.858153V0.782715ZM26.0779 9.2568C26.4099 9.2568 26.7164 9.23165 26.9462 9.13107C27.2016 9.03048 27.4059 8.87961 27.5592 8.70359C27.738 8.50243 27.8657 8.30126 27.9423 8.02466C28.0189 7.77321 28.07 7.4966 28.07 7.19486C28.07 6.89311 28.07 6.64165 27.9934 6.39019C27.9423 6.11359 27.8657 5.88728 27.738 5.68612C27.6358 5.45981 27.457 5.30893 27.2527 5.1832C27.0484 5.05747 26.793 4.98204 26.4865 4.98204C26.4865 4.98204 26.3843 4.98204 26.2822 4.98204H26.0779V9.20651V9.2568Z" fill="#A3A3A3"/>
<path d="M44.9072 0.782959C51.1025 -0.199127 61.4901 -0.000242542 63.1436 0.0515137C63.2427 0.0441834 63.3268 0.164377 63.2588 0.24585C62.9052 0.832531 61.6245 2.66076 58.1523 5.21558C58.0573 5.27394 58.0986 5.47408 58.2227 5.4646C59.4263 5.52515 63.446 5.57321 69.8281 4.90894C69.95 4.90175 70.0302 4.99567 69.9893 5.09937C69.5682 6.09821 67.3973 10.2583 59.8994 13.7312C59.7545 13.7931 59.7966 14.0185 59.9453 14.0076L66.2461 14.0349C66.3719 14.051 66.4579 14.1966 66.3652 14.28C64.9905 15.8605 56.661 24.6379 44.3965 21.8611C39.561 20.755 36.2149 16.355 36.1953 11.0398C36.1759 5.72452 39.4266 1.63426 44.9072 0.782959ZM45.3311 8.10718C45.148 8.1072 45.0105 8.19763 44.9189 8.35522L43.1113 11.575C43.0885 11.6198 43.0656 11.6199 42.9971 11.6199C42.931 11.6197 42.9078 11.5569 42.9062 11.5525L42.2656 8.37769C42.2427 8.31014 42.1962 8.26457 42.1504 8.19702C42.1056 8.13198 41.9544 8.1297 41.9453 8.12964H40.2979C40.2293 8.12964 40.1603 8.1522 40.0918 8.21948C40.0232 8.28703 40.0234 8.42261 40.0234 8.42261L41.2354 14.6824C41.2582 14.7498 41.2813 14.8171 41.3496 14.8621C41.3943 14.9281 41.5487 14.9294 41.5557 14.9294H42.9512C43.1113 14.9294 43.2717 14.8398 43.3633 14.6824L45.1709 11.53C45.1709 11.485 45.1941 11.4851 45.2627 11.4851C45.3302 11.4853 45.3529 11.5506 45.3535 11.5525L45.9717 14.6599C45.9945 14.7273 46.0175 14.7722 46.0859 14.8396C46.1546 14.9071 46.3154 14.907 46.3154 14.907H47.7109C47.8937 14.9069 48.0306 14.8396 48.1221 14.6599L51.6689 8.40015C51.6918 8.3326 51.6918 8.26457 51.6689 8.19702C51.623 8.12967 51.4854 8.10718 51.4854 8.10718H49.8613C49.6783 8.10719 49.5407 8.19762 49.4492 8.35522L47.6191 11.575C47.6191 11.6199 47.5731 11.6424 47.5273 11.6199C47.4835 11.5982 47.44 11.5352 47.4365 11.53L46.8184 8.35522C46.7955 8.28768 46.7727 8.21959 46.7041 8.17456C46.6376 8.10923 46.4852 8.10724 46.4756 8.10718H45.3311ZM52.7441 8.06128C52.63 8.0614 52.5387 8.1071 52.4473 8.17456C52.3577 8.24081 52.2899 8.43602 52.2871 8.44409L51.166 14.5242C51.1433 14.6365 51.166 14.7263 51.2344 14.7937C51.303 14.8612 51.4863 14.907 51.4863 14.907H52.8135C52.9277 14.9069 53.0189 14.8612 53.1104 14.7937C53.1993 14.7281 53.2668 14.5351 53.2705 14.5242L53.5 13.2625C53.5005 13.2191 53.5853 13.1965 53.5908 13.1951H56.7939C57.3202 13.1951 57.7782 13.0152 58.2129 12.6775C58.6247 12.3398 58.8997 11.912 58.9912 11.4167L59.2656 9.86304L59.2881 9.84058C59.3796 9.34527 59.2651 8.91756 58.9678 8.57983C58.6703 8.24209 58.2582 8.06128 57.7549 8.06128H52.7441ZM56.7939 9.79565C56.8855 9.79565 56.9777 9.81795 57.0234 9.8855C57.0919 9.95319 57.0918 10.1335 57.0918 10.1335L56.9092 11.1462C56.8863 11.2363 56.8405 11.3267 56.749 11.3943C56.6575 11.4618 56.4736 11.4841 56.4736 11.4841H53.8887C53.8225 11.4841 53.8204 11.4212 53.8203 11.4167L54.0947 9.8855C54.1176 9.81795 54.1865 9.79565 54.1865 9.79565H56.7939Z" fill="#A3A3A3"/>
</svg>
