<svg width="36" height="36" viewBox="0 0 36 36" fill="none" xmlns="http://www.w3.org/2000/svg">
<path fill-rule="evenodd" clip-rule="evenodd" d="M0 13.5C0 6.04416 6.04416 0 13.5 0H22.5C29.9558 0 36 6.04416 36 13.5V22.5C36 29.9558 29.9558 36 22.5 36H13.5C6.04416 36 0 29.9558 0 22.5V13.5ZM18 6.31592C23.173 6.31592 27.56 9.67843 29.0973 14.3365C29.1445 14.4797 29.0365 14.6255 28.8857 14.6255H23.9724C23.8937 14.6255 23.821 14.5842 23.779 14.5178C22.5825 12.6282 20.4418 11.3687 18 11.3687C14.2509 11.3691 11.2112 14.3375 11.2109 17.9995C11.2109 21.6617 14.2507 24.6309 18 24.6313C20.4413 24.6313 22.5814 23.3723 23.778 21.4831C23.82 21.4167 23.8927 21.3755 23.9714 21.3755H28.8847C29.0355 21.3755 29.1436 21.5212 29.0963 21.6645C27.559 26.3222 23.1729 29.6841 18 29.6841C11.5473 29.6838 6.31555 24.4532 6.31543 18.0005C6.3155 11.5477 11.5473 6.31622 18 6.31592ZM17.8242 21.375C17.7598 20.9941 17.5898 20.584 17.3145 20.1445C17.0391 19.6992 16.6465 19.2861 16.1367 18.9053C15.6328 18.5244 15.1289 18.2812 14.625 18.1758V17.8066C15.123 17.6895 15.6006 17.4727 16.0576 17.1562C16.5205 16.834 16.9072 16.4473 17.2178 15.9961C17.5342 15.5332 17.7363 15.0762 17.8242 14.625H18.1934C18.2461 14.918 18.3516 15.2197 18.5098 15.5303C18.668 15.835 18.8701 16.1279 19.1162 16.4092C19.3682 16.6846 19.6494 16.9336 19.96 17.1562C20.4229 17.4844 20.8945 17.7012 21.375 17.8066V18.1758C21.0527 18.2402 20.7187 18.3721 20.373 18.5713C20.0332 18.7705 19.7168 19.0078 19.4238 19.2832C19.1309 19.5527 18.8906 19.8369 18.7031 20.1357C18.4277 20.5752 18.2578 20.9883 18.1934 21.375H17.8242Z" fill="currentColor"/>
</svg>
