<svg width="199" height="32" viewBox="0 0 199 32" fill="none" xmlns="http://www.w3.org/2000/svg">
<rect width="32" height="32" rx="12" fill="#8345DD"/>
<path d="M15.9998 5.61401C20.5979 5.61401 24.4967 8.60253 25.863 12.7429C25.905 12.8702 25.809 12.9998 25.675 12.9998H21.3067C21.2368 12.9998 21.1722 12.9631 21.1348 12.904C20.0713 11.2248 18.1699 10.1052 15.9998 10.1052C12.6669 10.1054 9.96473 12.7444 9.9646 15.9998C9.9646 19.2552 12.6668 21.8941 15.9998 21.8943C18.1699 21.8943 20.0713 20.7748 21.1348 19.0955C21.1722 19.0364 21.2368 18.9998 21.3067 18.9998H25.675C25.809 18.9998 25.905 19.1293 25.863 19.2566C24.4968 23.397 20.598 26.3855 15.9998 26.3855C10.2638 26.3854 5.61401 21.7357 5.61401 15.9998C5.61413 10.2639 10.2639 5.61413 15.9998 5.61401Z" fill="white"/>
<path d="M15.844 19C15.7867 18.6615 15.6357 18.2969 15.3909 17.9062C15.1461 17.5104 14.7971 17.1432 14.344 16.8047C13.8961 16.4661 13.4482 16.25 13.0002 16.1562V15.8281C13.443 15.724 13.8674 15.5313 14.2737 15.25C14.6851 14.9635 15.0289 14.6198 15.3049 14.2187C15.5862 13.8073 15.7659 13.401 15.844 13H16.1721C16.219 13.2604 16.3127 13.5286 16.4534 13.8047C16.594 14.0755 16.7737 14.3359 16.9924 14.5859C17.2164 14.8307 17.4664 15.0521 17.7424 15.25C18.1539 15.5417 18.5732 15.7344 19.0002 15.8281V16.1562C18.7138 16.2135 18.4169 16.3307 18.1096 16.5078C17.8075 16.6849 17.5263 16.8958 17.2659 17.1406C17.0055 17.3802 16.7919 17.6328 16.6252 17.8984C16.3805 18.2891 16.2294 18.6562 16.1721 19H15.844Z" fill="white"/>
<path d="M85.2032 23.4999C83.7833 23.4999 82.5287 23.179 81.4395 22.5371C80.3502 21.8758 79.4944 20.9713 78.872 19.8238C78.269 18.6762 77.9675 17.3535 77.9675 15.8558C77.9675 14.3581 78.269 13.0355 78.872 11.8879C79.4944 10.7403 80.3405 9.84553 81.4103 9.20366C82.4995 8.54233 83.7444 8.21167 85.1448 8.21167C86.5064 8.21167 87.6832 8.55206 88.6752 9.23283C89.6671 9.89416 90.4354 10.8278 90.9801 12.0337C91.5247 13.2397 91.797 14.6596 91.797 16.2934H79.7473L80.3308 15.7975C80.3308 16.9645 80.535 17.9662 80.9435 18.8026C81.3714 19.639 81.9647 20.2808 82.7232 20.7282C83.4818 21.1561 84.3474 21.3701 85.3199 21.3701C86.3508 21.3701 87.2163 21.127 87.9166 20.6407C88.6363 20.1544 89.1906 19.5125 89.5796 18.7151L91.5928 19.7362C91.2232 20.4948 90.7272 21.1561 90.1048 21.7202C89.5018 22.2843 88.7821 22.7219 87.9458 23.0331C87.1288 23.3443 86.2146 23.4999 85.2032 23.4999ZM80.4767 14.8055L79.864 14.3387H89.9297L89.317 14.8346C89.317 13.901 89.1322 13.0938 88.7627 12.413C88.3931 11.7323 87.8971 11.2071 87.2747 10.8375C86.6523 10.468 85.9326 10.2832 85.1157 10.2832C84.3182 10.2832 83.5596 10.468 82.8399 10.8375C82.1397 11.2071 81.5659 11.7323 81.1185 12.413C80.6906 13.0744 80.4767 13.8718 80.4767 14.8055Z" fill="black"/>
<path d="M70.8226 15.2431C70.8226 13.6676 71.1241 12.3936 71.727 11.421C72.33 10.429 73.0983 9.69964 74.0319 9.23282C74.985 8.74655 75.9867 8.50342 77.0371 8.50342V10.6916C76.1812 10.6916 75.3546 10.8375 74.5571 11.1293C73.7791 11.4016 73.1372 11.8587 72.6315 12.5005C72.1258 13.1424 71.8729 14.0177 71.8729 15.1264L70.8226 15.2431ZM69.5388 23.1498V8.56177H71.8729V23.1498H69.5388Z" fill="black"/>
<path d="M63.8608 23.1501L63.7149 20.4659V8.56201H66.049V23.1501H63.8608ZM53.4741 16.0311V8.56201H55.8082V16.0311H53.4741ZM55.8082 16.0311C55.8082 17.4704 55.9735 18.5694 56.3042 19.328C56.6349 20.0866 57.092 20.6117 57.6755 20.9035C58.2785 21.1758 58.9495 21.312 59.6886 21.312C60.9529 21.312 61.9352 20.8549 62.6354 19.9407C63.3551 19.0265 63.7149 17.7525 63.7149 16.1186H64.8528C64.8528 17.6552 64.6291 18.9779 64.1817 20.0866C63.7344 21.1953 63.0828 22.0414 62.2269 22.6249C61.3906 23.2084 60.3597 23.5002 59.1343 23.5002C58.0061 23.5002 57.0142 23.2765 56.1583 22.8291C55.3025 22.3623 54.6412 21.6329 54.1743 20.6409C53.7075 19.6295 53.4741 18.3263 53.4741 16.7313V16.0311H55.8082Z" fill="black"/>
<path d="M45.9519 23.4999C44.8821 23.4999 43.9485 23.3443 43.151 23.0331C42.3535 22.7025 41.6825 22.2745 41.1379 21.7494C40.6127 21.2242 40.2334 20.6504 40 20.028L42.0423 19.1819C42.373 19.8432 42.869 20.3781 43.5303 20.7866C44.1916 21.195 44.921 21.3993 45.7185 21.3993C46.6327 21.3993 47.401 21.2242 48.0234 20.8741C48.6458 20.5045 48.9571 19.9891 48.9571 19.3278C48.9571 18.7248 48.7237 18.2385 48.2568 17.869C47.8095 17.4994 47.1384 17.1979 46.2437 16.9645L44.8432 16.5852C43.5206 16.2351 42.4897 15.7099 41.7506 15.0097C41.0114 14.29 40.6419 13.4828 40.6419 12.5881C40.6419 11.2071 41.0892 10.1373 41.984 9.37871C42.8982 8.60068 44.25 8.21167 46.0395 8.21167C46.8953 8.21167 47.6733 8.3381 48.3735 8.59096C49.0738 8.84382 49.6767 9.20366 50.1825 9.67048C50.6882 10.1178 51.0577 10.6527 51.2911 11.2752L49.2488 12.1796C48.996 11.5183 48.5778 11.0418 47.9942 10.75C47.4107 10.4582 46.7008 10.3123 45.8644 10.3123C44.9697 10.3123 44.2694 10.5069 43.7637 10.8959C43.258 11.2654 43.0051 11.7906 43.0051 12.4714C43.0051 12.8604 43.2094 13.23 43.6178 13.5801C44.0458 13.9107 44.6682 14.183 45.4851 14.397L46.9439 14.7763C47.897 15.0097 48.6945 15.3598 49.3363 15.8266C49.9782 16.274 50.4645 16.7894 50.7952 17.373C51.1258 17.9565 51.2911 18.5789 51.2911 19.2402C51.2911 20.1155 51.0577 20.8741 50.5909 21.516C50.1241 22.1578 49.492 22.6538 48.6945 23.004C47.897 23.3346 46.9828 23.4999 45.9519 23.4999Z" fill="black"/>
<path d="M102.619 23.7687C101.097 23.7687 99.7463 23.4254 98.5672 22.7388C97.3881 22.0373 96.4627 21.0821 95.7911 19.8731C95.1194 18.6492 94.7836 17.2462 94.7836 15.6641C94.7836 14.082 95.1194 12.6865 95.7911 11.4776C96.4627 10.2537 97.3806 9.29844 98.5448 8.61187C99.7239 7.91038 101.075 7.55963 102.597 7.55963C103.672 7.55963 104.672 7.75366 105.597 8.14172C106.522 8.51486 107.328 9.04471 108.015 9.73128C108.716 10.4029 109.254 11.179 109.627 12.0596L106.784 13.1119C106.53 12.5597 106.194 12.082 105.776 11.6791C105.358 11.2611 104.881 10.9402 104.343 10.7164C103.806 10.4776 103.224 10.3581 102.597 10.3581C101.687 10.3581 100.873 10.5895 100.157 11.0522C99.4552 11.4999 98.903 12.1194 98.5 12.9104C98.112 13.7014 97.9179 14.6194 97.9179 15.6641C97.9179 16.7089 98.1194 17.6343 98.5224 18.4403C98.9254 19.2313 99.4851 19.8582 100.202 20.3209C100.918 20.7686 101.739 20.9925 102.664 20.9925C103.306 20.9925 103.888 20.8731 104.41 20.6343C104.948 20.3806 105.418 20.0373 105.821 19.6045C106.239 19.1716 106.575 18.6716 106.828 18.1045L109.672 19.1343C109.299 20.0448 108.761 20.8507 108.06 21.5522C107.373 22.2537 106.567 22.7985 105.642 23.1866C104.716 23.5746 103.709 23.7687 102.619 23.7687ZM118.417 23.7687C116.835 23.7687 115.432 23.4254 114.208 22.7388C112.999 22.0373 112.051 21.0821 111.364 19.8731C110.678 18.6492 110.335 17.2537 110.335 15.6865C110.335 14.0895 110.678 12.6865 111.364 11.4776C112.051 10.2537 112.991 9.29844 114.185 8.61187C115.394 7.9253 116.782 7.58202 118.35 7.58202C119.932 7.58202 121.32 7.93276 122.514 8.63426C123.723 9.32083 124.671 10.2761 125.357 11.4999C126.044 12.7089 126.387 14.1044 126.387 15.6865C126.387 17.2537 126.044 18.6492 125.357 19.8731C124.685 21.0821 123.745 22.0373 122.536 22.7388C121.342 23.4254 119.969 23.7687 118.417 23.7687ZM118.417 20.9701C119.372 20.9701 120.208 20.7463 120.924 20.2985C121.656 19.8358 122.223 19.2089 122.626 18.4179C123.044 17.6268 123.253 16.7164 123.253 15.6865C123.253 14.6417 123.044 13.7238 122.626 12.9328C122.208 12.1417 121.633 11.5223 120.902 11.0746C120.17 10.6119 119.32 10.3805 118.35 10.3805C117.409 10.3805 116.566 10.6119 115.82 11.0746C115.088 11.5223 114.514 12.1417 114.096 12.9328C113.678 13.7238 113.469 14.6417 113.469 15.6865C113.469 16.7164 113.678 17.6268 114.096 18.4179C114.514 19.2089 115.096 19.8358 115.842 20.2985C116.588 20.7463 117.447 20.9701 118.417 20.9701ZM128.203 23.5V7.82829H131.404L139.061 18.3507V7.82829H142.106V23.5H139.061L131.27 12.7761V23.5H128.203ZM148.16 23.5V10.6268H143.459V7.82829H155.907V10.6268H151.228V23.5H148.16ZM166.665 23.5L160.665 7.82829H163.732L169.911 23.5H166.665ZM154.284 23.5L160.463 7.82829H163.531L157.531 23.5H154.284ZM157.195 20.0522V17.3433H167.023V20.0522H157.195ZM177.467 23.7687C175.944 23.7687 174.594 23.4254 173.414 22.7388C172.235 22.0373 171.31 21.0821 170.638 19.8731C169.967 18.6492 169.631 17.2462 169.631 15.6641C169.631 14.082 169.967 12.6865 170.638 11.4776C171.31 10.2537 172.228 9.29844 173.392 8.61187C174.571 7.91038 175.922 7.55963 177.444 7.55963C178.519 7.55963 179.519 7.75366 180.444 8.14172C181.37 8.51486 182.176 9.04471 182.862 9.73128C183.564 10.4029 184.101 11.179 184.474 12.0596L181.631 13.1119C181.377 12.5597 181.041 12.082 180.623 11.6791C180.206 11.2611 179.728 10.9402 179.191 10.7164C178.653 10.4776 178.071 10.3581 177.444 10.3581C176.534 10.3581 175.72 10.5895 175.004 11.0522C174.303 11.4999 173.75 12.1194 173.347 12.9104C172.959 13.7014 172.765 14.6194 172.765 15.6641C172.765 16.7089 172.967 17.6343 173.37 18.4403C173.773 19.2313 174.332 19.8582 175.049 20.3209C175.765 20.7686 176.586 20.9925 177.512 20.9925C178.153 20.9925 178.735 20.8731 179.258 20.6343C179.795 20.3806 180.265 20.0373 180.668 19.6045C181.086 19.1716 181.422 18.6716 181.676 18.1045L184.519 19.1343C184.146 20.0448 183.609 20.8507 182.907 21.5522C182.22 22.2537 181.415 22.7985 180.489 23.1866C179.564 23.5746 178.556 23.7687 177.467 23.7687ZM189.413 23.5V10.6268H184.712V7.82829H197.16V10.6268H192.48V23.5H189.413Z" fill="black"/>
</svg>
