<svg width="224" height="224" viewBox="0 0 224 224" fill="none" xmlns="http://www.w3.org/2000/svg">
<path d="M139.647 14.1897C131.612 22.0328 126.613 32.9442 126.613 45.0572V116.802C126.613 127.343 118.022 135.934 107.481 135.934H59.378C48.8369 135.934 40.252 127.343 40.252 116.802C40.252 106.262 48.8369 97.6643 59.378 97.6643H112.115V59.4074H59.378C56.1434 59.4074 52.9408 59.6695 49.8086 60.1809C22.6793 64.7578 2 88.383 2 116.802C2 141.789 17.9745 163.036 40.252 170.892C43.3267 171.979 46.5229 172.88 49.8086 173.366C52.9408 173.941 56.1434 174.229 59.378 174.229H107.481C110.76 174.229 113.937 173.941 117.044 173.366C120.323 172.88 123.525 171.979 126.619 170.892C148.897 163.036 164.878 141.789 164.878 116.802V97.6643C186.03 97.6643 203.149 80.5399 203.149 59.4138H164.878V45.0508C164.878 42.3981 167.026 40.2887 169.64 40.2887H179.229C190.895 40.2887 201.5 35.6672 209.254 28.0925C216.202 21.3233 220.901 12.2146 222 2H169.646C158.012 2.00639 147.407 6.65985 139.647 14.1897Z" fill="#F06434"/>
<path d="M59.3877 183.773C48.8339 183.773 40.2617 192.313 40.2617 202.873C40.2617 213.42 48.8339 221.998 59.3877 221.998C69.9606 221.998 78.5328 213.42 78.5328 202.86C78.5328 192.313 69.9542 183.773 59.3877 183.773Z" fill="#F06434"/>
<path d="M116.772 183.773C106.206 183.773 97.6719 192.313 97.6719 202.873C97.6719 213.42 106.206 221.998 116.772 221.998C127.371 221.998 135.905 213.42 135.905 202.86C135.898 192.313 127.371 183.773 116.772 183.773Z" fill="#F06434"/>
</svg>
