<svg width="99" height="115" viewBox="0 0 99 115" fill="none" xmlns="http://www.w3.org/2000/svg">
<path d="M66.5688 19.1326L98.6403 38.5443L66.5688 57.112V19.1326Z" fill="#3058E5"/>
<path d="M0.737793 19.1326L33.6532 38.5443L0.737793 57.1119V19.1326Z" fill="#3058E5"/>
<path d="M66.5688 57.1121L98.6403 38.5443V76.5236L66.5688 57.1121Z" fill="#3A30E5"/>
<path d="M66.5685 19.1326V57.1119L33.6531 38.5443L66.5685 19.1326Z" fill="#4067EE"/>
<path d="M66.5685 19.1326L33.6531 38.5443V0.564941L66.5685 19.1326Z" fill="#476EF9"/>
<path d="M33.6532 38.5443V76.5236L0.737793 57.112L33.6532 38.5443Z" fill="#624AF6"/>
<path d="M33.6532 0.564941V38.5443L0.737793 19.1326L33.6532 0.564941Z" fill="#4067EE"/>
<path d="M33.6532 76.5236V114.503L0.737793 95.0913L33.6532 76.5236Z" fill="#7C3AED"/>
<path d="M66.5688 57.1119L98.6403 76.5236L66.5688 95.0913V57.1119Z" fill="#4F46E5"/>
<path d="M0.737793 57.1119L33.6532 76.5236L0.737793 95.0913V57.1119Z" fill="#814AF7"/>
<path d="M66.5685 57.1119V95.0913L33.6531 76.5236L66.5685 57.1119Z" fill="#624AF6"/>
</svg>
