<svg width="96" height="96" viewBox="0 0 96 96" fill="none" xmlns="http://www.w3.org/2000/svg">
<g clip-path="url(#clip0_1_12440)">
<rect width="96" height="96" rx="33" fill="#5E25F8"/>
<path d="M30.0005 18C38.2847 18.0001 45.0005 24.7158 45.0005 33V77.6982C38.1547 76.3077 33.0025 70.2562 33.0025 63V30H27.0025V63C27.0025 70.2569 21.8484 76.3095 15.0015 77.6992V78H15.0005V33C15.0005 24.7157 21.7163 18 30.0005 18Z" fill="white"/>
<path d="M48.0005 78C56.2847 77.9999 63.0005 71.2842 63.0005 63V18.3018C56.1547 19.6923 51.0025 25.7438 51.0025 33V66H45.0025V33C45.0025 25.7431 39.8484 19.6905 33.0015 18.3008V18H33.0005V63C33.0005 71.2843 39.7163 78 48.0005 78Z" fill="white"/>
<path d="M99.0005 66H81.0015V33C81.0015 25.7433 75.848 19.6908 69.0015 18.3008V18H69.0005V63C69.0005 71.2843 75.7163 78 84.0005 78H99.0005V66Z" fill="white"/>
<path d="M12.0005 78C20.2847 77.9999 27.0005 71.2842 27.0005 63V18.3018C20.1543 19.6919 15.0015 25.7434 15.0015 33V66H-2.99847V18H-2.99945V78H12.0005Z" fill="white"/>
<path d="M66.0005 18C74.2847 18.0001 81.0005 24.7158 81.0005 33V77.6982C74.1547 76.3077 69.0025 70.2562 69.0025 63V30H63.0025V63C63.0025 70.2569 57.8484 76.3095 51.0015 77.6992V78H51.0005V33C51.0005 24.7157 57.7163 18 66.0005 18Z" fill="white"/>
</g>
<defs>
<clipPath id="clip0_1_12440">
<rect width="96" height="96" rx="33" fill="white"/>
</clipPath>
</defs>
</svg>
